<?xml version="1.0" encoding="UTF-8" standalone="no"?>
<svg width="114px" height="115px" viewBox="0 0 114 115" version="1.1" xmlns="http://www.w3.org/2000/svg" xmlns:xlink="http://www.w3.org/1999/xlink" xmlns:sketch="http://www.bohemiancoding.com/sketch/ns">
    <!-- Generator: Sketch 3.4 (15575) - http://www.bohemiancoding.com/sketch -->
    <title>Comm Icon</title>
    <desc>Created with Sketch.</desc>
    <defs></defs>
    <g id="Page-1" stroke="none" stroke-width="1" fill="none" fill-rule="evenodd" sketch:type="MSPage">
        <g id="Main" sketch:type="MSArtboardGroup" transform="translate(-525.000000, -6383.000000)">
            <g id="About-Us" sketch:type="MSLayerGroup" transform="translate(0.000000, 3131.000000)">
                <g id="How-We-Do-It" transform="translate(209.000000, 2981.000000)" sketch:type="MSShapeGroup">
                    <g id="Communications" transform="translate(70.000000, 268.000000)">
                        <g id="Comm-Icon" transform="translate(246.000000, 3.000000)">
                            <path d="M113.877162,57.4083139 C113.877162,26.0872652 88.4843586,0.695767742 57.1616984,0.695767742 C25.8390382,0.695767742 0.447384425,26.0872652 0.447384425,57.4083139 C0.447384425,88.7293626 25.8390382,114.11971 57.1616984,114.11971 C88.4843586,114.11971 113.877162,88.7293626 113.877162,57.4083139" id="Fill-1" fill="#D2D2D2"></path>
                            <path d="M42.2703526,62.5213443 C40.8396425,60.0832821 40.5808726,55.3532115 40.6222758,50.7128432 C40.664829,46.1219261 41.0006549,41.6299116 41.5641982,39.5460584 L24.2887189,39.5460584 C22.7418499,39.5460584 21.8424807,45.0788495 21.7539239,50.7128432 C21.6619168,56.5607423 22.4416768,62.5155941 25.0891805,62.5155941 L27.4882651,62.5167442 L27.4882651,89.2756265 C27.4882651,90.3348035 28.3485313,91.1961755 29.4077628,91.1961755 L33.464125,91.1961755 L33.464125,67.1410121 L39.4388347,62.5213443 L39.4388347,62.5201943 L42.2703526,62.5213443" id="Fill-2" fill="#000000"></path>
                            <path d="M33.4629749,91.1961755 L37.5170368,91.1961755 C38.5774184,91.1961755 39.4365345,90.3348035 39.4365345,89.2756265 L39.4365345,62.5213443 L33.4629749,67.1410121 L33.4629749,91.1961755" id="Fill-3" fill="#96B482"></path>
                            <path d="M78.5487441,51.019901 C78.5487441,36.5444819 82.4785965,24.6980298 85.0133915,23.6975043 C84.4670995,23.8309077 83.446971,24.1103648 83.0260386,24.2679188 L45.0420658,39.5460584 L45.031715,39.5460584 C44.4693218,41.6299116 44.1334959,46.1219261 44.0909427,50.7128432 C44.0483894,55.3532115 44.3071593,60.0832821 44.9374078,62.5213443 L45.0420658,62.5213443 L83.0260386,77.1612176 C83.4067179,77.3429222 84.4233961,77.6235294 84.9719883,77.7592328 C82.5671533,76.8185089 78.9489749,66.6085485 78.5820966,53.2302574 C78.574046,53.2072568 78.5682956,53.1831062 78.560245,53.1589555 C78.5533444,52.7426449 78.5487441,51.4419618 78.5487441,51.019901" id="Fill-4" fill="#000000"></path>
                            <path d="M92.5786736,51.019901 C92.5786736,35.8878151 90.3026485,23.6204523 85.4987288,23.6204523 C85.4538754,23.6262025 85.3273657,23.6549532 85.1606028,23.6975043 C82.6269579,24.6980298 78.6971055,36.5444819 78.6971055,51.019901 C78.6971055,51.4419618 78.7017058,52.7426449 78.7063062,53.1589555 C78.7155069,53.1831062 78.7212573,53.2072568 78.729308,53.2302574 C78.7212573,52.9139993 78.7120566,52.5965912 78.7063062,52.276883 C78.7960131,52.7702456 78.898371,53.2590081 79.0053292,53.7443205 C79.0260308,53.8351728 79.0455823,53.9248751 79.0662839,54.0145774 C79.1743922,54.4929896 79.2917012,54.9702517 79.4147607,55.4383137 C79.4228113,55.4601642 79.4274117,55.4797147 79.4331621,55.5004152 C79.9392011,57.098956 80.4475402,58.6434454 80.9685303,60.0913323 C81.7425398,61.999231 82.6235076,63.7150747 83.5539292,65.1480113 C83.576931,65.1848122 83.6010828,65.2227632 83.6252347,65.2595641 C83.7195419,65.4021677 83.811549,65.5401713 83.9070064,65.6747247 C83.9449593,65.7310761 83.9840623,65.7885776 84.0243154,65.842629 C84.1117221,65.9656821 84.1979788,66.0864352 84.2853855,66.2060382 C84.3348393,66.2727399 84.3842931,66.3371416 84.4337469,66.4015432 C84.513103,66.5061959 84.5947593,66.6131486 84.6764156,66.7132012 C84.799475,66.8684551 84.9259848,67.019109 85.0501943,67.1617126 C85.0996481,67.2203641 85.1479519,67.2721154 85.1985558,67.3261668 C85.2894127,67.4273694 85.3802697,67.5274219 85.4699766,67.6240244 C85.5194304,67.6746257 85.5677342,67.7217769 85.6160379,67.7700781 C85.7114952,67.8666806 85.8069526,67.959833 85.90356,68.0495352 C85.9461133,68.0886362 85.9875165,68.1265872 86.0277696,68.1645382 C86.1393281,68.2645907 86.2508867,68.3588931 86.3612952,68.4520455 C86.3865972,68.471596 86.4130492,68.4934466 86.4395012,68.5129971 C86.8753848,68.8603059 87.3101182,69.1294128 87.7322007,69.3111174 C87.7368011,69.3122674 87.7402513,69.3134175 87.7414014,69.3145675 C87.9081642,69.3847193 88.0726269,69.4376206 88.2370896,69.4824718 C88.2957441,69.4974222 88.3555487,69.5077724 88.4176535,69.5204228 C88.5200113,69.5411233 88.6212191,69.5560737 88.723577,69.5664239 C88.7902821,69.5733241 88.8615876,69.5790743 88.9282927,69.5790743 C89.0226,69.5802243 89.1146071,69.5733241 89.2066142,69.5641239 C89.2733193,69.5572237 89.3423246,69.5560737 89.4067296,69.5445734 C89.5435901,69.5192727 89.6793005,69.4801717 89.8115607,69.4284204 C89.8909168,69.3996697 89.9668227,69.3582686 90.0415784,69.3203177 C90.1105837,69.2858168 90.1749887,69.2524659 90.2405437,69.2110649 C90.3198998,69.1627636 90.3981058,69.1087123 90.4751618,69.0500608 C90.5349664,69.0040596 90.5913207,68.9534583 90.6488251,68.902857 C90.7270312,68.8327052 90.8040871,68.7660035 90.8799929,68.6855015 C90.8822931,68.6820514 90.8845933,68.6809013 90.8857434,68.6786013 C90.8857434,68.6774513 90.8857434,68.6763012 90.8880435,68.6751512 C91.1606145,68.3841938 91.4159342,68.0288347 91.6505522,67.5860734 C92.3038025,63.0791085 92.5786736,56.9529023 92.5786736,51.019901" id="Fill-5" fill="#96B482"></path>
                        </g>
                    </g>
                </g>
            </g>
        </g>
    </g>
</svg>