<?xml version="1.0" encoding="UTF-8" standalone="no"?>
<svg width="114px" height="114px" viewBox="0 0 114 114" version="1.1" xmlns="http://www.w3.org/2000/svg" xmlns:xlink="http://www.w3.org/1999/xlink" xmlns:sketch="http://www.bohemiancoding.com/sketch/ns">
    <!-- Generator: Sketch 3.4 (15575) - http://www.bohemiancoding.com/sketch -->
    <title>icon</title>
    <desc>Created with Sketch.</desc>
    <defs></defs>
    <g id="Page-1" stroke="none" stroke-width="1" fill="none" fill-rule="evenodd" sketch:type="MSPage">
        <g id="Main" sketch:type="MSArtboardGroup" transform="translate(-390.000000, -4492.000000)">
            <g id="About-Us" sketch:type="MSLayerGroup" transform="translate(0.000000, 3131.000000)">
                <g id="What-We-Do" transform="translate(205.000000, 1112.000000)" sketch:type="MSShapeGroup">
                    <g id="Insight" transform="translate(158.000000, 249.000000)">
                        <g id="icon" transform="translate(27.000000, 0.000000)">
                            <path d="M113.14097,56.774303 C113.14097,25.647697 87.9101212,0.416848485 56.7846667,0.416848485 C25.6580606,0.416848485 0.427212121,25.647697 0.427212121,56.774303 C0.427212121,87.8997576 25.6580606,113.131758 56.7846667,113.131758 C87.9101212,113.131758 113.14097,87.8997576 113.14097,56.774303" id="Fill-1" fill="#D2D2D2"></path>
                            <path d="M101.849212,58.2609091 C101.849212,58.2609091 84.1987879,80.8927879 56.8249697,80.8927879 C29.447697,80.8927879 11.7189697,58.2609091 11.7189697,58.2609091 C11.7189697,58.2609091 29.447697,32.6558182 56.8249697,32.6558182 C84.1987879,32.6558182 101.849212,58.2609091 101.849212,58.2609091" id="Fill-2" fill="#000000"></path>
                            <path d="M96.6432121,57.9799394 C96.6432121,57.9799394 80.1466061,77.7088485 56.8249697,77.7088485 C33.5010303,77.7088485 16.2018182,57.9799394 16.2018182,57.9799394 C16.2018182,57.9799394 33.5010303,35.8397576 56.8249697,35.8397576 C80.1466061,35.8397576 96.6432121,57.9799394 96.6432121,57.9799394" id="Fill-3" fill="#96B482"></path>
                            <path d="M76.9891515,52.9040606 C76.9891515,41.8172727 67.9992727,32.8331515 56.9147879,32.8331515 C45.8268485,32.8331515 36.8415758,41.8172727 36.8415758,52.9040606 C36.8415758,63.9885455 45.8268485,72.9761212 56.9147879,72.9761212 C67.9992727,72.9761212 76.9891515,63.9885455 76.9891515,52.9040606" id="Fill-4" fill="#000000"></path>
                            <path d="M66.2777576,52.9040606 C66.2777576,47.7314545 62.0862424,43.5422424 56.9147879,43.5422424 C51.7433333,43.5422424 47.5529697,47.7314545 47.5529697,52.9040606 C47.5529697,58.0778182 51.7433333,62.2658788 56.9147879,62.2658788 C62.0862424,62.2658788 66.2777576,58.0778182 66.2777576,52.9040606" id="Fill-5" fill="#FFFFFF"></path>
                        </g>
                    </g>
                </g>
            </g>
        </g>
    </g>
</svg>