<?xml version="1.0" encoding="UTF-8" standalone="no"?>
<svg width="744px" height="746px" viewBox="0 0 744 746" version="1.1" xmlns="http://www.w3.org/2000/svg" xmlns:xlink="http://www.w3.org/1999/xlink" xmlns:sketch="http://www.bohemiancoding.com/sketch/ns">
    <!-- Generator: Sketch 3.4.2 (15855) - http://www.bohemiancoding.com/sketch -->
    <title>Rectangle 1</title>
    <desc>Created with Sketch.</desc>
    <defs></defs>
    <g id="Page-1" stroke="none" stroke-width="1" fill="none" fill-rule="evenodd" sketch:type="MSPage">
        <g id="Shape-+-Group-+-Oval-1" sketch:type="MSLayerGroup" transform="translate(19.000000, 23.000000)">
            <path d="M713.7,357.5 C713.7,160.5 554,0.8 357,0.8 C160,0.8 0.3,160.5 0.3,357.5 C0.3,554.5 160,714.2 357,714.2 C554,714.2 713.7,554.5 713.7,357.5 L713.7,357.5 L713.7,357.5 Z" id="Shape" fill="#CDCED1" sketch:type="MSShapeGroup"></path>
            <g id="Group" sketch:type="MSShapeGroup">
                <g id="Shape">
                    <path d="M357,0.9 C160,0.9 0.3,160.6 0.3,357.6 C0.3,554.6 160,714.3 357,714.3 C554,714.3 713.7,554.6 713.7,357.6 C713.7,160.6 554,0.9 357,0.9 L357,0.9 L357,0.9 Z" fill="#96B583"></path>
                    <path d="M713.7,357.5 C713.7,317.5 707.1,279 695,243.1 L677.3,243.1 C676.9,243.1 677.3,286.5 677.3,286.5 L636.7,286.5 L622.3,286.5 L622.3,280.8 L594.7,280.8 L594.7,263.2 L567,235.6 L567,192.5 L516,220.1 L516,237.7 L500.6,237.7 L500.6,286.5 L498.5,290.8 L498.5,332.6 L479.5,329.4 L479.5,252 L474.5,252 L474.5,182.8 L454.8,143.7 L454.8,132.6 L451.9,132.6 L449,102.1 L447.2,132.6 L444,132.6 L444,143.7 L423.2,182.8 L423.2,254.5 L418.3,254.5 L400.8,226.5 L372.9,226.5 L356.8,254.5 L354.3,254.5 L354.3,266.7 L350.7,266.7 L350.7,307.6 L336.2,329.3 L336.2,157.3 L263.8,145.7 L222.5,149.7 L222.5,297.4 L207.1,297.4 L207.1,263.6 L196.5,263.6 L196.5,233.2 L158.5,233.2 L158.5,226 L143.8,226 L143.8,233.5 L121.9,233.5 L121.9,299.2 L5.4,297.3 C2.1,316.9 0.3,337 0.3,357.6 C0.3,554.5 160,714.2 357,714.2 C554,714.2 713.7,554.5 713.7,357.5 L713.7,357.5 Z" fill="#1E2215"></path>
                </g>
                <path d="M521.2,403.3 C515.1,386.7 503.3,378 486.9,378 C484.3,378 481.2,379.4 477,381.3 C469.5,384.6 458.1,389.7 442.3,389.7 C431.8,389.7 420.6,387.4 408.9,382.9 C411.6,407.7 412.6,447.8 403.5,504.5 C403,507.8 400.1,510.2 396.9,510.2 C396.5,510.2 396.2,510.2 395.8,510.1 C392.1,509.5 389.6,506.1 390.2,502.4 C399.7,442.9 397.8,402.1 394.8,379.1 C378.5,389.9 355.3,390.7 355.2,390.7 C355,390.7 332.2,389.9 316,379.4 C313,402.4 311.2,443 320.6,502.3 C321.2,506 318.7,509.4 315,510 C314.6,510.1 314.3,510.1 313.9,510.1 C310.7,510.1 307.8,507.8 307.3,504.4 C298.2,447.4 299.2,407.2 302,382.5 C290.1,387.2 278.6,389.6 267.9,389.6 C252.1,389.6 240.8,384.6 233.2,381.2 C228.9,379.3 225.9,377.9 223.3,377.9 C213.7,377.9 206.4,381.6 201.6,389 C184.7,415.2 204.3,483.7 222.6,534.2 L181.3,534.2 L204.1,576.7 L146,576.7 L146,579.9 L146,598.2 L146,610.5 L181.3,610.5 L181.3,598.2 L215.6,598.2 L218.3,598.2 C218.1,600.2 218,602.2 218,604.3 C218,622 224.9,638.6 237.4,651.2 C249.9,663.7 266.6,670.6 284.3,670.6 C302,670.6 318.6,663.7 331.2,651.2 C343.7,638.7 350.6,622 350.6,604.3 C350.6,602.2 350.5,600.2 350.3,598.2 L364.8,598.2 C363.1,617.2 369.4,636.7 383.9,651.2 C396.4,663.7 413.1,670.6 430.8,670.6 C448.5,670.6 465.1,663.7 477.6,651.2 C490.1,638.7 497,622 497,604.3 C497,602.2 496.9,600.2 496.7,598.2 L516.6,598.2 L516.6,534.3 L503.2,534.3 C522.5,490.1 533.1,435.7 521.2,403.3 L521.2,403.3 L521.2,403.3 Z" id="Shape" fill="#CDCED1"></path>
                <g id="right-wheel" fill="#1E2215">
                    <path d="M77.9,10.3 L49.1,39.1 L20.3,10.3 C37.4,-2.4 60.8,-2.4 77.9,10.3 L77.9,10.3 L77.9,10.3 Z" id="Path"></path>
                    <path d="M10.3,20.3 L39.1,49.1 L10.3,78 C-2.4,60.9 -2.4,37.4 10.3,20.3 L10.3,20.3 L10.3,20.3 Z" id="Path"></path>
                    <path d="M20.3,88 L49.1,59.2 L77.9,88 C60.9,100.7 37.4,100.7 20.3,88 L20.3,88 L20.3,88 Z" id="Path"></path>
                    <path d="M88,78 L59.2,49.2 L88,20.4 C100.6,37.4 100.6,60.9 88,78 L88,78 L88,78 Z" id="Path"></path>
                </g>
                <g id="left-wheel" fill="#1E2215">
                    <path d="M77.7,10.3 L48.9,39.1 L20.1,10.3 C37.2,-2.4 60.6,-2.4 77.7,10.3 L77.7,10.3 L77.7,10.3 Z" id="Path"></path>
                    <path d="M10,20.3 L38.8,49.1 L10,78 C-2.6,60.9 -2.6,37.4 10,20.3 L10,20.3 L10,20.3 Z" id="Path"></path>
                    <path d="M20.1,88 L48.9,59.2 L77.7,88 C60.6,100.7 37.2,100.7 20.1,88 L20.1,88 L20.1,88 Z" id="Path"></path>
                    <path d="M87.8,78 L59,49.2 L87.8,20.4 C100.4,37.4 100.4,60.9 87.8,78 L87.8,78 L87.8,78 Z" id="Path"></path>
                </g>
            </g>
            <path d="M352,695 C540.881384,695 694,541.881384 694,353 C694,164.118616 540.881384,11 352,11 C163.118616,11 10,164.118616 10,353 C10,541.881384 163.118616,695 352,695 Z" id="Oval-1" stroke="#CDCED1" stroke-width="50" sketch:type="MSShapeGroup"></path>
        </g>
        <rect id="Rectangle-1" sketch:type="MSShapeGroup" x="0" y="0" width="744" height="746"></rect>
    </g>
</svg>