<?xml version="1.0" encoding="UTF-8" standalone="no"?>
<svg width="115px" height="115px" viewBox="0 0 115 115" version="1.1" xmlns="http://www.w3.org/2000/svg" xmlns:xlink="http://www.w3.org/1999/xlink" xmlns:sketch="http://www.bohemiancoding.com/sketch/ns">
    <!-- Generator: Sketch 3.4 (15575) - http://www.bohemiancoding.com/sketch -->
    <title>Strategy Icon</title>
    <desc>Created with Sketch.</desc>
    <defs></defs>
    <g id="Page-1" stroke="none" stroke-width="1" fill="none" fill-rule="evenodd" sketch:type="MSPage">
        <g id="Main" sketch:type="MSArtboardGroup" transform="translate(-510.000000, -4488.000000)">
            <g id="About-Us" sketch:type="MSLayerGroup" transform="translate(0.000000, 3131.000000)">
                <g id="What-We-Do" transform="translate(205.000000, 1112.000000)" sketch:type="MSShapeGroup">
                    <g id="Strategy" transform="translate(191.000000, 245.000000)">
                        <g id="Strategy-Icon" transform="translate(114.000000, 0.000000)">
                            <path d="M114.930269,57.4992468 C114.930269,25.7790051 89.2177662,0.0653144132 57.4975245,0.0653144132 C25.7772829,0.0653144132 0.0635921689,25.7790051 0.0635921689,57.4992468 C0.0635921689,89.2183009 25.7772829,114.933179 57.4975245,114.933179 C89.2177662,114.933179 114.930269,89.2183009 114.930269,57.4992468" id="Fill-1" fill="#D2D2D2"></path>
                            <path d="M58.0437905,12.1223551 L58.0437905,12.0938543 C57.8573476,12.0938543 57.6804049,12.1057296 57.496337,12.1081047 C57.3146442,12.1057296 57.1377015,12.0938543 56.950071,12.0938543 L56.950071,12.1223551 C39.1940509,12.7671865 34.1161521,28.8820335 34.1161521,35.0536518 C34.1161521,43.6074648 38.190584,52.9794894 40.7805973,58.1642662 C43.3717982,63.3490431 46.7040209,76.8346881 46.7040209,84.9799892 L68.2874656,84.9799892 C68.2874656,76.8346881 71.6232508,63.3490431 74.2120766,58.1642662 C76.8056526,52.9794894 80.8777094,43.6074648 80.8777094,35.0536518 C80.8777094,28.8820335 75.7998106,12.7671865 58.0437905,12.1223551" id="Fill-2" fill="#96B482"></path>
                            <path d="M57.496337,92.4234573 C50.5409457,92.4234573 46.1482546,89.8987583 46.1482546,89.8987583 L46.1482546,93.3010455 C46.1482546,96.6736443 53.5786597,97.4277288 57.496337,97.4277288 C61.4152018,97.4277288 68.8456069,96.9657778 68.8456069,93.3010455 L68.8456069,89.8987583 C68.8456069,89.8987583 64.1489068,92.4234573 57.496337,92.4234573" id="Fill-3" fill="#000000"></path>
                            <path d="M53.5715345,99.7564846 C56.3669914,100.485631 58.8073754,100.485631 61.3629502,99.7564846 C61.8296514,103.126708 59.3845173,103.826166 57.4678361,103.826166 C55.5487799,103.826166 53.5715345,102.842887 53.5715345,100.683949 L53.5715345,99.7564846" id="Fill-4" fill="#000000"></path>
                            <path d="M72.7181579,25.9880112 C72.7181579,24.1461448 71.2230516,22.6510385 69.3811851,22.6510385 C67.5345685,22.6510385 66.0394622,24.1461448 66.0394622,25.9880112 C66.0394622,27.8346278 67.5345685,29.3285466 69.3811851,29.3285466 C71.2230516,29.3285466 72.7181579,27.8346278 72.7181579,25.9880112" id="Fill-5" fill="#FFFFFF"></path>
                            <path d="M70.946356,45.8079668 L70.946356,41.6527826 L67.7435746,40.8690096 C67.5226932,40.1196752 67.2222469,39.4059668 66.8505485,38.7338221 L68.6342257,35.7994236 L65.6962647,32.860275 L62.7903671,34.6225767 C62.0849714,34.2188148 61.3332619,33.8898677 60.5399886,33.6523607 L59.8381556,30.7904019 L55.6853464,30.7904019 L55.0215145,33.4920435 C54.0109224,33.728363 53.0549569,34.105999 52.1773687,34.6071387 L49.2999719,32.860275 L46.3608233,35.7994236 L48.1183748,38.6934459 C47.7336135,39.379841 47.4236669,40.11255 47.1956603,40.88326 L44.0475055,41.6527826 L44.0475055,45.8079668 L47.0923447,46.5525511 C47.3215389,47.4657654 47.6611739,48.3338533 48.1088745,49.1366268 L46.315697,52.0935884 L49.2489079,55.0315495 L52.1916191,53.2466847 C53.2746508,53.8618277 54.4716859,54.2857776 55.7470982,54.4924087 L55.7470982,82.8269887 C48.9662746,82.4077889 46.1482546,79.6622085 46.1482546,79.6622085 L46.1482546,85.4478779 C46.1482546,88.8216643 53.5786597,89.9854483 57.496337,89.9854483 C61.4152018,89.9854483 68.8456069,89.1114227 68.8456069,85.4478779 L68.8456069,79.6622085 C68.8456069,79.6622085 65.9765229,82.4054138 59.2455757,82.8269887 L59.2455757,54.4840959 C60.5114878,54.2715272 61.7013977,53.8440147 62.7773042,53.2300592 L65.741391,55.0315495 L68.6805396,52.0935884 L66.8588612,49.0950631 C67.293499,48.3089151 67.6236336,47.4586402 67.8492652,46.5668015 L70.946356,45.8079668" id="Fill-6" fill="#000000"></path>
                            <path d="M64.7141734,43.9221616 C64.7141734,39.9213569 61.4710159,36.6793869 57.4690237,36.6793869 C53.4717816,36.6793869 50.2274366,39.9213569 50.2274366,43.9221616 C50.2274366,47.9205912 53.4717816,51.1637487 57.4690237,51.1637487 C61.4710159,51.1637487 64.7141734,47.9205912 64.7141734,43.9221616" id="Fill-7" fill="#A1B480"></path>
                        </g>
                    </g>
                </g>
            </g>
        </g>
    </g>
</svg>