<?xml version="1.0" encoding="UTF-8" standalone="no"?>
<svg width="114px" height="114px" viewBox="0 0 114 114" version="1.1" xmlns="http://www.w3.org/2000/svg" xmlns:xlink="http://www.w3.org/1999/xlink" xmlns:sketch="http://www.bohemiancoding.com/sketch/ns">
    <!-- Generator: Sketch 3.4 (15575) - http://www.bohemiancoding.com/sketch -->
    <title>Workshops Icon</title>
    <desc>Created with Sketch.</desc>
    <defs></defs>
    <g id="Page-1" stroke="none" stroke-width="1" fill="none" fill-rule="evenodd" sketch:type="MSPage">
        <g id="Main" sketch:type="MSArtboardGroup" transform="translate(-726.000000, -8036.000000)">
            <g id="About-Us" sketch:type="MSLayerGroup" transform="translate(0.000000, 3131.000000)">
                <g id="Get-Started" transform="translate(211.000000, 4811.000000)" sketch:type="MSShapeGroup">
                    <g id="Workshops" transform="translate(68.000000, 94.000000)">
                        <g id="Workshops-Icon" transform="translate(447.000000, 0.000000)">
                            <path d="M113.926528,56.9190835 C113.926528,25.4888105 88.4483324,0.00818624869 57.016845,0.00818624869 C25.5853576,0.00818624869 0.107162215,25.4888105 0.107162215,56.9190835 C0.107162215,88.3493564 25.5853576,113.828766 57.016845,113.828766 C88.4483324,113.828766 113.926528,88.3493564 113.926528,56.9190835" id="Fill-1" fill="#000000"></path>
                            <path d="M65.6213073,36.1906484 C62.3361879,36.1906484 59.6740875,38.8527488 59.6740875,42.1378682 C59.6740875,45.4205586 62.3361879,48.082659 65.6213073,48.082659 C68.9052121,48.082659 71.5697414,45.4205586 71.5697414,42.1378682 C71.5697414,38.8527488 68.9052121,36.1906484 65.6213073,36.1906484" id="Fill-2" fill="#FFFFFF"></path>
                            <path d="M47.9933934,36.5732039 C46.317436,36.5732039 44.9596676,37.9309723 44.9596676,39.6057152 C44.9596676,41.2804581 46.317436,42.6357975 47.9933934,42.6357975 C49.6644929,42.6357975 51.0234757,41.2804581 51.0234757,39.6057152 C51.0234757,37.9309723 49.6644929,36.5732039 47.9933934,36.5732039" id="Fill-3" fill="#FFFFFF"></path>
                            <path d="M67.4575736,56.8826496 C66.3499844,56.8826496 65.4488537,57.7837803 65.4488537,58.8913695 C65.4488537,59.9989587 66.3499844,60.8964461 67.4575736,60.8964461 C68.5663773,60.8964461 69.4626501,59.9989587 69.4626501,58.8913695 C69.4626501,57.7837803 68.5663773,56.8826496 67.4575736,56.8826496" id="Fill-4" fill="#FFFFFF"></path>
                            <path d="M82.9188875,42.9904204 C81.1919228,24.1055385 57.9847711,20.2192605 49.2442891,24.6447595 C40.3762886,29.1334106 34.0538001,33.1727107 34.024653,49.7914068 C34.024653,51.4685786 27.3353971,61.8789457 28.6312279,62.8505152 C29.9258443,63.8232991 33.5935191,62.4181668 34.024653,63.3921652 C34.4594304,64.3625202 32.8381238,73.428478 35.1055241,75.0461412 C37.3729244,76.6662333 42.6619058,77.4216286 48.2727196,77.4216286 L48.2727196,88.8618593 L73.2056216,88.8618593 C73.2056216,88.8618593 73.3137087,70.9449035 73.2056216,67.7059337 C75.7948543,65.5490494 84.6434234,61.8789457 82.9188875,42.9904204 L82.9188875,42.9904204 Z M73.1133225,59.4791691 C73.0841754,59.7390639 73.0562428,59.8884427 72.617822,59.9333778 C72.2668425,59.9698117 71.7591975,60.0924723 71.3790709,60.1507665 C71.2964875,60.4276638 71.1884004,60.6936309 71.0548096,60.9401667 C71.2770561,61.2559268 71.5442377,61.7125644 71.7652698,61.9943196 C72.0385237,62.3428701 71.9486535,62.4655308 71.7847012,62.665917 C71.6183199,62.8699466 71.4507242,63.03147 71.1665401,63.3035095 C70.8835705,63.5755489 70.7766978,63.5123969 70.4427208,63.3229409 C70.1548934,63.1614174 69.7456197,62.8407995 69.3800667,62.6173385 C69.1165285,62.7618595 68.8347733,62.8748044 68.5396591,62.9610312 C68.4449311,63.3229409 68.2979812,63.7747207 68.2360436,64.0953386 C68.1534602,64.5313304 68.0040814,64.543475 67.7417577,64.5507618 C67.4794339,64.559263 67.2474717,64.5422606 66.856415,64.5046122 C66.4665727,64.4706073 66.4434979,64.3479467 66.3633434,63.972678 C66.3099071,63.7103542 66.283189,63.3229409 66.2394683,62.9610312 C65.8909178,62.8602309 65.565442,62.7157099 65.2606121,62.5335406 C64.9533532,62.7375702 64.5671544,62.968318 64.3181897,63.1614174 C63.9672102,63.431028 63.845764,63.3423722 63.6453778,63.175991 C63.4425627,63.0096097 63.2798248,62.8407995 63.0114287,62.555401 C62.7406037,62.2712169 62.8049702,62.1631298 62.9956407,61.8303672 C63.1510918,61.5583278 63.4498494,61.1806301 63.6733104,60.8296507 C63.5445775,60.5770426 63.4425627,60.3086465 63.369695,60.0281058 C63.0065709,59.9394501 62.55722,59.8034304 62.2378165,59.7463507 C61.8018247,59.671054 61.7872512,59.5216752 61.7751065,59.258137 C61.7629619,58.9970277 61.7775355,58.763851 61.8042536,58.3740088 C61.8346152,57.9817376 61.9572758,57.9574484 62.3313301,57.8736505 C62.6082274,57.8129274 63.0296456,57.777708 63.4097722,57.7218428 C63.5166448,57.380579 63.6684526,57.06239 63.8506219,56.7660613 C63.6259464,56.4369421 63.3405479,56.0871771 63.1863112,55.8321401 C62.9883539,55.5030209 62.9215585,55.3949338 63.1863112,55.1058919 C63.4522784,54.81685 63.6089439,54.6456109 63.8081157,54.4731573 C64.006073,54.3019182 64.1238758,54.2084046 64.4797131,54.4731573 C64.7833286,54.6990472 65.2909736,54.9735156 65.6103771,55.1945476 C65.8617707,55.0767448 66.12288,54.9832313 66.4009918,54.9152214 C66.4945053,54.5108056 66.5576573,54.0298787 66.6438841,53.7262632 C66.7495423,53.3558524 66.7799039,53.2356206 67.1733895,53.2307628 C67.5656607,53.223476 67.7976229,53.223476 68.0587322,53.2477653 C68.3174126,53.2769124 68.4667914,53.2999871 68.5190132,53.7408368 C68.560305,54.1063898 68.6999681,54.6431819 68.7606912,55.0269519 C68.9853666,55.1058919 69.2027553,55.2018344 69.4055704,55.3172083 C69.7990561,55.103463 70.2641949,54.7500546 70.5823839,54.5812444 C70.9212188,54.4002896 71.0317348,54.338352 71.3062032,54.6188927 C71.5831005,54.89579 71.7446239,55.0621713 71.9061474,55.2674153 C72.0688853,55.4738739 72.1551121,55.5989634 71.8733569,55.9390127 C71.6292501,56.2365559 71.3256346,56.7332708 71.0851712,57.0429586 C71.2090463,57.2773497 71.3062032,57.522671 71.3814999,57.777708 C71.8017037,57.890653 72.3299946,57.9610917 72.6542559,58.0606776 C73.0222378,58.1699792 73.1412551,58.2027697 73.143684,58.5938264 C73.143684,58.9860976 73.143684,59.2192742 73.1133225,59.4791691 L73.1133225,59.4791691 Z M76.5793966,43.2806768 C76.519888,43.783464 76.472524,44.070077 75.6187573,44.1575182 C74.9398731,44.2291715 73.9573735,44.467206 73.2177662,44.5813654 C73.0586717,45.1157287 72.8497842,45.6282316 72.5886749,46.1091585 C73.0222378,46.7224617 73.540813,47.6065899 73.9658747,48.1506688 C74.4965945,48.8259096 74.3229265,49.0603008 74.0023085,49.452572 C73.6816906,49.8448431 73.3574293,50.1618177 72.809707,50.6864652 C72.2619847,51.2135417 72.0530973,51.090881 71.4045746,50.725328 C70.8459222,50.4095679 70.0553075,49.7914068 69.3472762,49.3578439 C68.8384167,49.6359557 68.2906944,49.8545588 67.7198973,50.0185112 C67.5352991,50.7228991 67.2499006,51.5985261 67.1308833,52.2227595 C66.9693599,53.0668104 66.6778891,53.0886708 66.1726729,53.1056732 C65.6650279,53.1202468 65.2144625,53.0838129 64.4590673,53.0170175 C63.7012431,52.9490076 63.6587369,52.713402 63.5057147,51.9835105 C63.4024854,51.4782943 63.3490491,50.7228991 63.2603934,50.0185112 C62.588796,49.8254117 61.9536324,49.5460855 61.3646184,49.195106 C60.771961,49.5898061 60.0226381,50.0367281 59.5380678,50.4095679 C58.8603981,50.9354299 58.6272214,50.7617618 58.2349502,50.438715 C57.845108,50.1156681 57.5317768,49.7889779 57.0095582,49.2376122 C56.4861251,48.6886754 56.6087858,48.479788 56.9804111,47.8324798 C57.2791687,47.3054034 57.858467,46.5730829 58.2883865,45.8954132 C58.0418508,45.405985 57.842679,44.8861954 57.700587,44.3445454 C56.998628,44.1733062 56.1302878,43.9024813 55.5084833,43.7956086 C54.6668613,43.6474443 54.6364997,43.3584023 54.6122105,42.8519717 C54.5879213,42.3443267 54.6170683,41.8925469 54.6729336,41.1347227 C54.6802204,41.030279 54.7020807,40.9634836 54.7202976,40.8821146 C54.6571456,40.8979026 54.6024948,40.917334 54.5186969,40.9246208 C54.0754183,40.9707703 53.4353969,41.125007 52.9520411,41.2015181 C52.8475974,41.5488542 52.7091488,41.8852601 52.541553,42.1985913 C52.8257371,42.5993637 53.1597141,43.1774475 53.4402548,43.5308559 C53.7863764,43.9717056 53.672217,44.1259422 53.464544,44.3809792 C53.2544421,44.6384451 53.0431258,44.8449037 52.686074,45.1873819 C52.3278077,45.5310746 52.1905735,45.4521346 51.7679408,45.2128856 C51.4023878,45.0052126 50.885027,44.6032257 50.424746,44.3202561 C50.090769,44.501211 49.7337172,44.6457319 49.3596629,44.7513901 C49.2442891,45.2128856 49.0536186,45.7836827 48.9783219,46.1905274 C48.8702348,46.7394642 48.6819932,46.7564666 48.3504451,46.7661823 C48.0201115,46.775898 47.7262117,46.7516088 47.2319258,46.7066737 C46.7376398,46.665382 46.7084927,46.5111453 46.6113358,46.0326474 C46.5421114,45.7023137 46.506892,45.2128856 46.4485979,44.7513901 C46.0126061,44.6263005 45.5960456,44.4429168 45.2134902,44.214598 C44.8248624,44.4720639 44.3366487,44.7611058 44.0208886,45.0052126 C43.5751811,45.3489053 43.4233734,45.2359604 43.1695508,45.0258585 C42.9132994,44.8145421 42.7104843,44.6020113 42.3704349,44.2413161 C42.0255278,43.8806209 42.1068967,43.7458157 42.3497891,43.3243974 C42.5453175,42.9794902 42.9230151,42.5009923 43.2023413,42.0589282 C43.0408179,41.7383102 42.9132994,41.3994754 42.8210003,41.0472814 C42.3607192,40.9343365 41.7959945,40.7582395 41.3891498,40.6865862 C40.8377841,40.5906438 40.8207816,40.4024022 40.8037791,40.0720685 C40.7879911,39.7405205 40.8074225,39.4454062 40.8450708,38.9511203 C40.8790758,38.4556198 41.0333124,38.4264727 41.5069526,38.3183856 C41.860361,38.2406601 42.3935097,38.1981539 42.8756511,38.1277151 C43.006813,37.6953667 43.1974835,37.2933798 43.4330891,36.9181111 C43.1464761,36.5027651 42.7857809,36.060701 42.5902525,35.7376542 C42.3400734,35.3198793 42.2562755,35.1862885 42.5902525,34.8207355 C42.9230151,34.4527535 43.1246158,34.2341504 43.3747949,34.0191906 C43.624974,33.8030164 43.7767818,33.6852136 44.2249182,34.0191906 C44.6099026,34.3033747 45.249924,34.6507108 45.6604121,34.9336804 C45.9725288,34.7843016 46.3065058,34.6628554 46.6538419,34.5778431 C46.7728592,34.0677691 46.8530137,33.4568948 46.9635297,33.0719104 C47.0946916,32.6067715 47.1347688,32.4525348 47.6314837,32.4452481 C48.1281986,32.4379613 48.4220984,32.4343179 48.752432,32.4695373 C49.0815512,32.5035422 49.2673638,32.5339038 49.3341592,33.0913418 C49.38881,33.5552662 49.5636925,34.2317215 49.6402036,34.7199351 C49.9243877,34.8207355 50.2000706,34.9397527 50.4587509,35.0830592 C50.9542514,34.8146632 51.5420509,34.3665267 51.9440378,34.1539959 C52.3739573,33.9256771 52.509977,33.8503804 52.8609565,34.2001455 C53.209507,34.5535539 53.4159656,34.7636558 53.6212096,35.0235506 C53.8215958,35.2858744 53.9333263,35.4413255 53.577489,35.8736739 C53.2690157,36.2477282 52.8864602,36.8768194 52.5816303,37.2690906 C52.7346525,37.5642048 52.8609565,37.875107 52.956899,38.1981539 C53.4876188,38.3402459 54.1567873,38.4313306 54.5660609,38.5539912 C55.0311998,38.6936543 55.1830076,38.7361605 55.1854365,39.2304465 C55.1854365,39.7113734 55.1830076,40.0052731 55.1490026,40.3210332 C55.2898802,40.2675969 55.4574759,40.2214474 55.6906526,40.1667966 C56.2274448,40.0489938 57.0459921,39.9834128 57.7843849,39.8728968 C57.9872,39.213444 58.2810998,38.5952829 58.6369371,38.0220569 C58.2009453,37.3844645 57.6471507,36.7080092 57.350822,36.2125088 C56.9646231,35.5724874 56.8383191,35.3696722 57.350822,34.8085908 C57.8596815,34.2438661 58.1657259,33.9135325 58.5494958,33.5819844 C58.9332658,33.2492218 59.1615846,33.0694815 59.8538279,33.5819844 C60.4440563,34.0191906 61.4216981,34.548696 62.0483605,34.97983 C62.5317163,34.7515111 63.0417903,34.5681274 63.574939,34.43818 C63.7558938,33.6560665 63.8797689,32.7221454 64.0449358,32.1331314 C64.2489654,31.4153844 64.3096884,31.1846367 65.0699416,31.172492 C65.8289802,31.1603474 66.28076,31.1579185 66.7859762,31.2089259 C67.2899778,31.2611478 67.5765908,31.3072973 67.6749623,32.1598495 C67.7599746,32.8715242 68.0283707,33.9111035 68.1461735,34.6567831 C68.5809508,34.8085908 69.0023691,34.9919746 69.3982836,35.2130066 C70.1585368,34.8013041 71.0596675,34.1163476 71.6753996,33.7884429 C72.3324235,33.4374634 72.5437399,33.3208751 73.0781031,33.8588817 C73.6136808,34.3993172 73.9294408,34.7223641 74.242772,35.121922 C74.5548887,35.52148 74.72127,35.7595145 74.1735477,36.4238251 C73.7035509,36.9946222 73.1181803,37.9601194 72.651827,38.561278 C72.8862181,39.0118433 73.0781031,39.4879124 73.225053,39.9834128 C74.0375279,40.199587 75.0625338,40.3404646 75.6891961,40.5274917 C76.4032996,40.7400226 76.6352619,40.804389 76.6376908,41.5646422 C76.6401197,42.3248953 76.6376908,42.7754606 76.5793966,43.2806768 L76.5793966,43.2806768 Z" id="Fill-5" fill="#FFFFFF"></path>
                            <path d="M55.1453592,40.3501803 C55.1453592,40.3404646 55.1453592,40.3307489 55.1490026,40.3210332 C54.9085392,40.4169757 54.7773773,40.5736413 54.7202976,40.8821146 C55.0652048,40.8019601 55.1149977,40.6282921 55.1453592,40.3501803" id="Fill-6" fill="#FFFFFF"></path>
                        </g>
                    </g>
                </g>
            </g>
        </g>
    </g>
</svg>