<?xml version="1.0" encoding="UTF-8" standalone="no"?>
<svg width="114px" height="115px" viewBox="0 0 114 115" version="1.1" xmlns="http://www.w3.org/2000/svg" xmlns:xlink="http://www.w3.org/1999/xlink" xmlns:sketch="http://www.bohemiancoding.com/sketch/ns">
    <!-- Generator: Sketch 3.4 (15575) - http://www.bohemiancoding.com/sketch -->
    <title>Content</title>
    <desc>Created with Sketch.</desc>
    <defs></defs>
    <g id="Page-1" stroke="none" stroke-width="1" fill="none" fill-rule="evenodd" sketch:type="MSPage">
        <g id="Main" sketch:type="MSArtboardGroup" transform="translate(-1246.000000, -6383.000000)">
            <g id="About-Us" sketch:type="MSLayerGroup" transform="translate(0.000000, 3131.000000)">
                <g id="How-We-Do-It" transform="translate(209.000000, 2981.000000)" sketch:type="MSShapeGroup">
                    <g id="Content" transform="translate(1037.000000, 271.000000)">
                        <path d="M113.973252,57.3523607 C113.973252,25.8804321 88.4600732,0.3660375 56.9869286,0.3660375 C25.5137839,0.3660375 0.00182142857,25.8804321 0.00182142857,57.3523607 C0.00182142857,88.8242893 25.5137839,114.337468 56.9869286,114.337468 C88.4600732,114.337468 113.973252,88.8242893 113.973252,57.3523607" id="Fill-1" fill="#D2D2D2"></path>
                        <path d="M92.6652482,80.6376964 L92.6652482,25.9448839 L23.7395357,25.9448839 L23.7395357,80.6376964 L51.5912196,80.6376964 L51.5912196,86.4991607 L34.0068268,86.4991607 L26.1485732,91.1907643 L89.2018768,91.1907643 L80.6893768,86.4991607 L63.7032911,86.4991607 L63.7032911,80.6376964 L92.6652482,80.6376964 L92.6652482,80.6376964 Z M57.6521196,71.7165964 C59.1795054,71.7165964 60.4211143,72.9569893 60.4211143,74.4892393 C60.4211143,76.0202732 59.1795054,77.2630982 57.6521196,77.2630982 C56.1174375,77.2630982 54.8758286,76.0202732 54.8758286,74.4892393 C54.8758286,72.9569893 56.1174375,71.7165964 57.6521196,71.7165964 L57.6521196,71.7165964 Z" id="Fill-2" fill="#000000"></path>
                        <path d="M28.1490107,30.8942946 L88.1353821,30.8942946 L88.1353821,67.6050589 L28.1490107,67.6050589 L28.1490107,30.8942946 Z" id="Fill-3" fill="#96B482"></path>
                        <path d="M67.5047304,52.5659036 C67.5047304,52.5440143 67.5059464,52.5196929 67.5047304,52.5002357 L67.5047304,51.5067054 L58.4328375,51.5067054 L61.7077179,54.3328554 C60.9768589,55.1050607 59.8240232,55.4832589 57.8856054,55.4832589 C54.3541339,55.4832589 53.0030786,52.3640357 53.0030786,49.2496768 C53.0030786,46.1316696 54.3541339,43.0160946 57.8856054,43.0160946 C60.0915589,43.0160946 61.8512143,44.1032625 62.0299768,45.8969679 L67.4974339,45.8969679 C67.0000607,40.6338107 62.3546679,38.3111143 58.0011321,38.3111143 C51.6495911,38.3111143 47.5344054,43.1632393 47.5344054,49.2496768 C47.5344054,55.3373304 51.1655946,60.1870232 57.5147036,60.1870232 C61.6116482,60.1870232 64.0243339,59.00865 65.4520018,57.5663893 L67.5047304,59.3394214 L67.5047304,52.5659036" id="Fill-4" fill="#FFFFFF"></path>
                    </g>
                </g>
            </g>
        </g>
    </g>
</svg>