<?xml version="1.0" encoding="UTF-8" standalone="no"?>
<svg width="984px" height="816px" viewBox="0 0 984 816" version="1.1" xmlns="http://www.w3.org/2000/svg" xmlns:xlink="http://www.w3.org/1999/xlink" xmlns:sketch="http://www.bohemiancoding.com/sketch/ns">
    <!-- Generator: Sketch 3.4 (15575) - http://www.bohemiancoding.com/sketch -->
    <title>Group</title>
    <desc>Created with Sketch.</desc>
    <defs></defs>
    <g id="Page-1" stroke="none" stroke-width="1" fill="none" fill-rule="evenodd" sketch:type="MSPage">
        <g id="Group" sketch:type="MSLayerGroup" transform="translate(1.000000, 0.000000)" stroke="#000000">
            <path d="M491,1 L491,125 L1,125 L1,811 L983,815" id="Path-1364" sketch:type="MSShapeGroup"></path>
            <path d="M491,2 L491,125 L982,124 L982,813" id="Path-1365" sketch:type="MSShapeGroup"></path>
            <path d="M491,1 L491,124 L2,125 L1,206 L982,206" id="Path-1366" sketch:type="MSShapeGroup"></path>
            <path d="M491,0 L491,124 L1,124 L1,287 L983,287" id="Path-1368" sketch:type="MSShapeGroup"></path>
            <path d="M491,1 L490,125 L2,125 L2,368 L983,368" id="Path-1369" sketch:type="MSShapeGroup"></path>
            <path d="M490,1 L490,124 L2,126 L1,205 L260,206 L260,731" id="Path-1370" sketch:type="MSShapeGroup"></path>
            <path d="M491,0 L492,123 L2,125 L0,731 L982,733" id="Path-1371" sketch:type="MSShapeGroup"></path>
            <path d="M491,1 L491,124 L2,126 L2,732 L803,733 L802,812" id="Path-1372" sketch:type="MSShapeGroup"></path>
        </g>
    </g>
</svg>