<svg width="1321" height="7861" viewBox="0 0 1321 7861" xmlns="http://www.w3.org/2000/svg"><title>Group</title><g stroke-linecap="square" stroke-width="2" fill="none" fill-rule="evenodd"><path d="M588 7556v304m0-304h583m0-1223v1223M10.5 6332h39M9 5912.88V6332m1310-1750v858M10 4581h1309M9 4236v345m1310-1086L8.738 4237.016M1318 2827v667M8 2825h1310m1-1167L8.738 2400.016M1320 934v724M1 934h1319M1 1v934.725M8 2401v423.73M51 6381v-105m1.5 0h1076.078M50.5 6381H1129m1.5-48h40m-41 0h41" stroke="#000"/><path d="M10.5 5912.5l1310-469"/></g></svg>