<?xml version="1.0" encoding="UTF-8" standalone="no"?>
<svg width="760px" height="381px" viewBox="0 0 760 381" version="1.1" xmlns="http://www.w3.org/2000/svg" xmlns:xlink="http://www.w3.org/1999/xlink" xmlns:sketch="http://www.bohemiancoding.com/sketch/ns">
    <!-- Generator: Sketch 3.4 (15575) - http://www.bohemiancoding.com/sketch -->
    <title>largest</title>
    <desc>Created with Sketch.</desc>
    <defs></defs>
    <g id="Page-1" stroke="none" stroke-width="1" fill="none" fill-rule="evenodd" sketch:type="MSPage">
        <g id="largest" sketch:type="MSLayerGroup" fill="#000000">
            <g id="Page-1" sketch:type="MSShapeGroup">
                <g id="largest">
                    <path d="M758.108487,378.765258 L57.5753963,378.765258 L57.2785603,378.765258 L57.2785603,380.765258 L57.5753963,380.765258 L758.108487,380.765258 L758.405321,380.765258 L758.405321,378.765258 L758.108487,378.765258 L758.108487,378.765258 L758.108487,378.765258 Z" id="Shape"></path>
                    <path d="M59.2785603,378.467919 L59.2785603,329.704225 L59.2785603,329.406886 L57.2785603,329.406886 L57.2785603,329.704225 L57.2785603,378.467919 L57.2785603,378.765258 L59.2785603,378.765258 L59.2785603,378.467919 L59.2785603,378.467919 L59.2785603,378.467919 Z" id="Shape"></path>
                    <path d="M312.990815,0 L0,0 L0,2 L313.58529,2 L313.58529,0 L312.990815,0" id="Shape"></path>
                    <path d="M57.5810106,332.947199 L57.8732394,332.947199 C57.8732394,332.947199 57.2768538,332.457248 57.2768538,332.947199 C57.2768538,334.022576 57.2768538,331.190923 57.2768538,331.190923 L57.5810106,331.190923 L0.292228844,331.190923 L0,331.190923 L0,332.947199 L0.292228844,332.947199 L57.5810106,332.947199 L57.5810106,332.947199 Z" id="Shape"></path>
                    <path d="M59.2785603,329.704225 L59.2785603,275.588419 L59.2785603,275.29108 L57.2785603,275.29108 L57.2785603,275.588419 L57.2785603,329.704225 L57.2785603,330.001565 L59.2785603,330.001565 L59.2785603,329.704225 L59.2785603,329.704225 L59.2785603,329.704225 Z" id="Shape"></path>
                    <path d="M758.108231,277.29108 L758.405321,275.29108 L57.5756479,275.29108 L57.2785603,277.29108 L758.108231,277.29108 L758.108231,277.29108 Z" id="Shape"></path>
                    <path d="M757.810642,275.595918 L757.810642,380.46042 L757.810642,380.765258 L759.810642,380.765258 L759.810642,380.46042 L759.810642,275.595918 L759.810642,275.29108 L757.810642,275.29108 L757.810642,275.595918 L757.810642,275.595918 L757.810642,275.595918 Z" id="Shape"></path>
                    <path d="M0,332.785603 L2,332.785603 L2,1 L0,1 L0,332.785603 Z" id="Shape" transform="translate(1.000000, 166.892801) scale(-1, 1) translate(-1.000000, -166.892801) "></path>
                </g>
            </g>
        </g>
    </g>
</svg>