<?xml version="1.0" encoding="UTF-8" standalone="no"?>
<svg width="1278px" height="422px" viewBox="0 0 1278 422" version="1.1" xmlns="http://www.w3.org/2000/svg" xmlns:xlink="http://www.w3.org/1999/xlink" xmlns:sketch="http://www.bohemiancoding.com/sketch/ns">
    <!-- Generator: Sketch 3.4 (15575) - http://www.bohemiancoding.com/sketch -->
    <title>largest</title>
    <desc>Created with Sketch.</desc>
    <defs></defs>
    <g id="Page-1" stroke="none" stroke-width="1" fill="none" fill-rule="evenodd" sketch:type="MSPage">
        <g id="largest" sketch:type="MSLayerGroup" fill="#000000">
            <path d="M1276.50085,420 L98.4991533,420 L98,420 L98,422 L98.4991533,422 L1276.50085,422 L1277,422 L1277,420 L1276.50085,420 L1276.50085,420 Z" id="Shape" sketch:type="MSShapeGroup"></path>
            <path d="M100,419.5 L100,337.5 L100,337 L98,337 L98,337.5 L98,419.5 L98,420 L100,420 L100,419.5 L100,419.5 Z" id="Shape" sketch:type="MSShapeGroup"></path>
            <path d="M528,0 L1.5,0 L1.5,2 L529,2 L529,0 L528,0" id="Shape" sketch:type="MSShapeGroup"></path>
            <path d="M98.5051525,341.756276 L99,341.756276 C99,341.756276 97.9901067,341.266325 97.9901067,341.756276 C97.9901067,342.831652 97.9901067,340 97.9901067,340 L98.5051525,340 L1.49484748,340 L1,340 L1,341.756276 L1.49484748,341.756276 L98.5051525,341.756276 Z" id="Shape" sketch:type="MSShapeGroup"></path>
            <path d="M100,337.5 L100,246.5 L100,246 L98,246 L98,246.5 L98,337.5 L98,338 L100,338 L100,337.5 L100,337.5 Z" id="Shape" sketch:type="MSShapeGroup"></path>
            <path d="M1276.50042,248 L1277,246 L98.4995763,246 L98,248 L1276.50042,248 Z" id="Shape" sketch:type="MSShapeGroup"></path>
            <path d="M1276,246.50289 L1276,419.49711 L1276,420 L1278,420 L1278,419.49711 L1278,246.50289 L1278,246 L1276,246 L1276,246.50289 L1276,246.50289 Z" id="Shape" sketch:type="MSShapeGroup"></path>
            <path d="M0,2 L0,341 L2,341 L2,1 L0,1 L0,2" id="Shape" sketch:type="MSShapeGroup"></path>
        </g>
    </g>
</svg>