<?xml version="1.0" encoding="UTF-8" standalone="no"?>
<svg width="1001px" height="210px" viewBox="0 0 1001 210" version="1.1" xmlns="http://www.w3.org/2000/svg" xmlns:xlink="http://www.w3.org/1999/xlink" xmlns:sketch="http://www.bohemiancoding.com/sketch/ns">
    <!-- Generator: Sketch 3.4 (15575) - http://www.bohemiancoding.com/sketch -->
    <title>Header</title>
    <desc>Created with Sketch.</desc>
    <defs>
        <path d="M953.56412,47.1849296 C953.56412,38.3759859 948.668108,33.2674648 932.262386,33.2674648 L912.109807,33.2674648 L912.109807,61.0751408 L934.600012,61.0751408 C942.625964,61.0751408 953.56412,59.7124648 953.56412,47.1849296 L953.56412,47.1849296 Z M449.362578,89.8548592 L436.85794,46.7821831 L436.461783,46.7821831 L422.965241,89.8548592 L449.362578,89.8548592 L449.362578,89.8548592 Z M336.554711,93.1888732 C336.554711,84.9673944 331.658699,80.4554225 321.500759,80.4554225 L294.495578,80.4554225 L294.495578,106.515845 L319.72259,106.515845 C328.716253,106.515845 336.554711,103.957042 336.554711,93.1888732 L336.554711,93.1888732 Z M294.495578,54.4222535 L317.194446,54.4222535 C326.188108,54.4222535 331.864337,51.8755634 331.864337,42.8788732 C331.864337,35.8444366 325.988518,33.2674648 317.194446,33.2674648 L294.495578,33.2674648 L294.495578,54.4222535 L294.495578,54.4222535 Z M251.495952,95.8445775 L251.495952,56.8720423 C248.211783,64.9511972 242.417614,71.8039437 233.847325,74.9926056 C242.118229,78.1752113 248.136181,85.6305634 251.495952,95.8445775 L251.495952,95.8445775 Z M211.723036,47.1849296 C211.723036,38.3759859 206.854241,33.2674648 190.418277,33.2674648 L170.29594,33.2674648 L170.29594,61.0751408 L192.774048,61.0751408 C200.790928,61.0751408 211.723036,59.7124648 211.723036,47.1849296 L211.723036,47.1849296 Z M1000.87611,139.798451 L957.843217,139.798451 C955.732398,132.727676 954.931012,125.505493 954.356434,118.25 C953.16494,104.929085 952.006711,91.0328169 934.99012,91.0328169 L912.109807,91.0328169 L912.109807,139.798451 L585.682795,139.798451 L542.86159,63.4219718 L542.47753,63.4219718 L542.47753,139.798451 L463.83288,139.798451 L457.969157,119.830704 L413.587518,119.830704 L407.330663,139.798451 L216.047494,139.798451 C213.885265,132.727676 213.111096,125.505493 212.533494,118.25 C211.345024,104.929085 210.168651,91.0328169 193.176253,91.0328169 L170.29594,91.0328169 L170.29594,139.798451 L127.284217,139.798451 L127.284217,85.748662 C127.284217,124.521338 106.351422,143.120352 63.7358554,143.120352 C21.1051687,143.120352 0,124.521338 0,85.748662 L0,0 L43.0117229,0 L43.0117229,76.1493662 C43.0117229,90.4574648 43.0117229,108.269155 63.9263735,108.269155 C84.2513253,108.269155 84.2513253,90.4574648 84.2513253,76.1493662 L84.2513253,0 L209.194892,0 C227.935217,0 244.685687,7.97316901 251.495952,23.6045775 L251.495952,0 L327.948133,0 C364.699976,0 372.514241,20.7550704 372.514241,35.0359155 C372.514241,49.1441549 365.69188,56.778169 355.325277,62.4529577 C367.835964,66.7620423 379.572482,76.7459155 379.572482,97.3071831 C379.572482,97.5130986 379.530145,97.7069014 379.530145,97.9037324 L415.553181,0 L457.585096,0 L501.794361,121.638521 L501.794361,0 L545.804036,0 L586.46906,74.7745775 L586.877313,74.7745775 L586.877313,0 L711.076952,0 L711.076952,35.8444366 L638.55912,35.8444366 L638.55912,53.2442958 L704.433012,53.2442958 L704.433012,86.5269014 L638.55912,86.5269014 L638.55912,103.957042 L732.309133,103.957042 L732.309133,0 L847.856831,0 L847.856831,35.8444366 L775.326904,35.8444366 L775.326904,53.2442958 L841.231036,53.2442958 L841.231036,86.5269014 L775.326904,86.5269014 L775.326904,103.957042 L869.098084,103.957042 L869.098084,0 L951.020855,0 C975.43741,0 996.575843,13.5147183 996.575843,39.9445775 C996.575843,54.4222535 989.931904,69.6933099 975.673289,74.9926056 C987.391663,79.4894366 994.637398,92.4076056 996.185735,109.828662 C996.781482,116.675352 996.972,133.336338 1000.87611,139.798451 L1000.87611,139.798451 Z M746.912494,193.590845 L765.156867,193.590845 L765.156867,186.068873 L746.912494,186.068873 L746.912494,179.55831 L766.874554,179.55831 L766.874554,171.781972 L737.20212,171.781972 L737.20212,209.028451 L767.382602,209.028451 L767.382602,200.670704 L746.912494,200.670704 L746.912494,193.590845 L746.912494,193.590845 Z M677.905639,199.48669 L677.823988,199.48669 L670.523819,171.781972 L660.405193,171.781972 L672.147759,209.028451 L683.27341,209.028451 L695.342578,171.781972 L685.236048,171.781972 L677.905639,199.48669 L677.905639,199.48669 Z M608.80806,209.028451 L618.482145,209.028451 L618.482145,171.775915 L608.80806,171.775915 L608.80806,209.028451 Z M533.49294,180.133662 L544.597422,180.133662 L544.597422,209.028451 L554.283602,209.028451 L554.283602,180.133662 L565.394133,180.133662 L565.394133,171.781972 L533.49294,171.781972 L533.49294,180.133662 L533.49294,180.133662 Z M484.058036,195.15338 L479.933169,182.105 L479.84547,182.105 L475.620807,195.15338 L484.058036,195.15338 L484.058036,195.15338 Z M484.841277,171.781972 L498.770265,209.028451 L488.633494,209.028451 L486.353325,202.354366 L473.376928,202.354366 L471.039301,209.028451 L461.074904,209.028451 L474.994819,171.781972 L484.841277,171.781972 L484.841277,171.781972 Z M399.749253,193.590845 L418.005723,193.590845 L418.005723,186.068873 L399.749253,186.068873 L399.749253,179.55831 L419.711313,179.55831 L419.711313,171.781972 L390.06912,171.781972 L390.06912,209.028451 L420.243554,209.028451 L420.243554,200.670704 L399.749253,200.670704 L399.749253,193.590845 L399.749253,193.590845 Z M335.63841,183.555493 C335.63841,180.805915 333.424771,179.55831 330.712157,179.55831 L323.012807,179.55831 L323.012807,187.94331 L331.138554,187.94331 C334.050759,187.94331 335.63841,186.395915 335.63841,183.555493 L335.63841,183.555493 Z M344.883072,200.637394 C344.988916,202.190845 345.149193,207.674859 346.464675,209.028451 L336.85712,209.028451 C336.034566,207.768732 335.883361,204.119789 335.78659,203.093239 C335.508373,199.314085 334.888434,195.474366 330.349265,195.474366 L323.012807,195.474366 L323.012807,209.028451 L313.320578,209.028451 L313.320578,171.781972 L332.296783,171.781972 C338.840928,171.781972 345.321566,174.76169 345.321566,182.268521 C345.321566,186.274789 343.389169,190.081197 339.497157,191.607394 L339.497157,191.701268 C343.437554,192.646056 344.580663,197.091408 344.883072,200.637394 L344.883072,200.637394 Z M243.185735,190.417324 C243.185735,195.940704 245.589892,201.479225 251.840699,201.479225 C256.364747,201.479225 258.992687,198.856831 259.346506,194.578028 L269.026639,194.578028 C268.512542,204.195493 261.478494,209.809718 252.028193,209.809718 C240.787627,209.809718 233.48141,201.203662 233.48141,190.417324 C233.48141,179.59162 240.787627,170.994648 252.028193,170.994648 C260.084386,170.994648 268.772614,176.109225 269.026639,185.090775 L259.346506,185.090775 C258.826361,181.317676 255.908108,179.325141 251.840699,179.325141 C245.589892,179.325141 243.185735,184.869718 243.185735,190.417324 L243.185735,190.417324 Z" id="path-1"></path>
    </defs>
    <g id="Page-1" stroke="none" stroke-width="1" fill="none" fill-rule="evenodd" sketch:type="MSPage">
        <g id="Main" sketch:type="MSArtboardGroup" transform="translate(-305.000000, -82.000000)">
            <g id="Header" sketch:type="MSLayerGroup" transform="translate(305.000000, 82.000000)">
                <mask id="mask-2" sketch:name="Mask" fill="white">
                    <use xlink:href="#path-1"></use>
                </mask>
                <use id="Mask" fill="#000000" sketch:type="MSShapeGroup" xlink:href="#path-1"></use>
            </g>
        </g>
    </g>
</svg>