<svg viewBox="0 0 115.1 88.6">
  <path style="fill:#D2D2D2;" d="M113.6,7.7c-1.8-5-5.4-7.7-10.4-7.7c-0.8,0-1.7,0.4-3,1c-2.3,1-5.7,2.5-10.5,2.5
        c-3.2,0-6.6-0.7-10.1-2.1C80.4,9,80.7,21.1,78,38.3c-0.2,1-1,1.7-2,1.7c-0.1,0-0.2,0-0.3,0c-1.1-0.2-1.9-1.2-1.7-2.3
        c2.9-18,2.3-30.4,1.4-37.3c-4.9,3.3-12,3.5-12,3.5c-0.1,0-7-0.2-11.9-3.4c-0.9,7-1.5,19.3,1.4,37.2c0.2,1.1-0.6,2.2-1.7,2.3
        c-0.1,0-0.2,0-0.3,0c-1,0-1.8-0.7-2-1.7C46.1,21,46.4,8.9,47.2,1.4c-3.6,1.4-7.1,2.1-10.3,2.1C32.1,3.5,28.7,2,26.4,1
        c-1.3-0.6-2.2-1-3-1c-2.9,0-5.1,1.1-6.6,3.4c-5.1,7.9,0.8,28.7,6.4,44H10.7l6.9,12.9H0v1v5.5v3.7h10.7v-3.7h10.4h0.8
        c-0.1,0.6-0.1,1.2-0.1,1.8c0,5.4,2.1,10.4,5.9,14.2c3.8,3.8,8.8,5.9,14.2,5.9c5.4,0,10.4-2.1,14.2-5.9c3.8-3.8,5.9-8.8,5.9-14.2
        c0-0.6,0-1.2-0.1-1.8h4.4c-0.5,5.7,1.4,11.7,5.8,16c3.8,3.8,8.8,5.9,14.2,5.9c5.4,0,10.4-2.1,14.2-5.9c3.8-3.8,5.9-8.8,5.9-14.2
        c0-0.6,0-1.2-0.1-1.8h6V47.3h-4C114,34,117.2,17.5,113.6,7.7z M50.5,56.7l-8.7,8.7L33,56.7C38.2,52.9,45.3,52.9,50.5,56.7z
         M30,59.8l8.7,8.7L30,77.2C26.1,72.1,26.1,64.9,30,59.8z M33,80.3l8.7-8.7l8.7,8.7C45.3,84.1,38.2,84.1,33,80.3z M53.5,77.2
        l-8.7-8.7l8.7-8.7C57.3,65,57.3,72.1,53.5,77.2z M94.7,56.7L86,65.5l-8.7-8.7C82.5,52.9,89.6,52.9,94.7,56.7z M74.3,59.8l8.7,8.7
        l-8.7,8.7C70.4,72.1,70.4,64.9,74.3,59.8z M77.3,80.3l8.7-8.7l8.7,8.7C89.6,84.1,82.5,84.1,77.3,80.3z M97.8,77.2l-8.7-8.7
        l8.7-8.7C101.6,65,101.6,72.1,97.8,77.2z"/>
    </svg>