<svg xmlns="http://www.w3.org/2000/svg" xmlns:xlink="http://www.w3.org/1999/xlink" x="0" y="0" width="860" height="410" viewBox="0 0 860 410">
<defs>
  <path id="continents" d="M124,2.9c-2.5-0.1-4.9,0.4-7.2,1.4c0.5,0.5,1,0.9,1.7,1.2c2.3,1.3,5,1.7,7.9,1.3c2.4,0.2,4.7,0.6,7,1.3c0.5,0.2,0.8,0.5,1.1,0.9c1,2.6,2.9,4,5.5,4.5c-0.3,0.2-0.5,0.5-0.7,0.9c0,0,0.1,0.1,0.2,0.1c0.2,0.2,0.5,0.4,0.6,0.5c0.2,0.2,0.3,0.4,0.3,0.6c-2.6,1.1-3,2.8-1.3,4.9c0.3,0.4,0.5,0.7,0.8,1.1c0.9,1.7,2.3,2.8,4,3.5c2.3,0.8,4.7,1.6,7,2.3c1.2-1.5,2.2-3.1,3-4.9c0.3-0.7,0.8-1.1,1.4-1.4c1.6-0.9,3.3-1.6,5.2-2.2c0.9-0.3,1.8-0.6,2.7-0.8c4.1-0.3,7.8-1.5,11.4-3.6l-0.1-1.2c-1.7-0.4-2.9-1.1-3.6-2l4.3-0.9l0.4-0.8l1.7-0.2c0.1-0.2,0.2-0.3,0.2-0.5c0.2-0.5,0-1-0.4-1.4c0.5-0.1,0.8-0.2,1.3-0.3c1-0.3,1.5-1,1.5-2l-2.2-0.3l0.2-0.7l1.1-0.6l-0.8-0.9c2,0.2,3.6-0.4,4.9-1.9l-0.5-0.3c-3.1,0.1-6.3,0.5-9.4,1.2l-0.8-1C164,0.3,155.9-0.1,147.8,0c-0.6,0.2-1.4,0.2-2,0.2c-2,0.3-3.9,0.4-5.8,0.3c-1.6-0.1-3.2,0-4.7,0.2c-3.9,0.8-7.8,1.1-11.8,1L124,2.9z M211.8,47.4l-0.1,0.4l1.2,0.8l0.2-1.4C212.5,47.1,212.1,47.2,211.8,47.4z M178.4,19.1l-0.5,0.5c-1.3-0.8-2.7-1-4.2-0.6c-0.7,1.2-0.4,2.3,0.9,3.2c1.9,1.4,3.9,1.6,6.3,0.8c0.6-0.2,1.1-0.4,1.6-0.8c1.9-1.3,1.7-2.3-0.3-3.2L178.4,19.1z M220.1,55l0.2-1.8l-0.4-0.6l-3.3,0.3l2.8,2L220.1,55z M244,56.1l-0.9-0.2l-1.9,0.2l0.1,0.6C242.3,56.9,243.2,56.7,244,56.1z M111,11.4c-1.4-0.5-2.9-0.9-4.4-1.1c-3-0.4-6.1-0.4-9.1,0.1c-1.5-0.1-2.4,0.5-3,2c-0.1,0.2-0.1,0.4-0.1,0.6c3.9,0.8,8,1.1,12,1c2.8-0.2,5.2,0.6,7.3,2.6l-0.1,0.5l-1.1,0.8l-3-0.5l-1.7,2.3l0.4,0.5c3.9-0.2,7.6,0.3,11.1,1.7c0.7,0.2,1.3,0.3,2,0.4c1.1-0.2,2.1-0.5,3-1l0.1-0.6l-2.8-2.1c2,0.1,3.9-0.2,5.7-0.8C122,15.2,116.5,13.1,111,11.4z M232.8,55.7l-3.2-0.2l0.4,1l2.9-0.1L232.8,55.7z M135,38.1c0.2-0.3,0.2-0.8,0.2-1.2h-1.1l-3.4,5.2c2.7,1.1,5.5,1.2,8.2,0.5c-0.5-2-1.7-3.3-3.7-3.6c-0.2-0.1-0.4-0.3-0.5-0.4v-0.2C134.8,38.5,134.9,38.3,135,38.1z M80.8,5.2c1.8,0.8,3.3,0.6,4.7-0.4c-1.4-0.7-2.7-1-4.4-0.8c-0.4,0.2-0.6,0.5-0.5,1C80.6,5,80.7,5.1,80.8,5.2z M81.1,8.2c1.7,0.2,3.3,0.2,4.9-0.4c1.2,0.9,2.3,1.1,3.4,0.5V8c0-1.1,0.5-1.9,1.3-2.4c-0.7-1.2-1.7-1.7-3-1.7l-0.5,1.4l-0.2,1.1c-1.5,0.1-3,0.3-4.5,0.6c-0.3,0.1-0.7,0-0.9-0.2c-1.7-0.8-2.8-0.5-3.1,1.1C78.6,8,78.8,8.1,79,8.2C79.6,8.4,80.3,8.4,81.1,8.2z M99.7,20.9l-0.1,1.5l-0.8,1c1.1,0.2,2.2,0.4,3.3,0.6c0.7-0.7,1.6-0.9,2.6-0.9c0.7,0.2,1.4,0.2,2.1,0.2l-0.3-0.6c-2.2-1-4.4-1.7-6.7-2.1L99.7,20.9z M99,3.9c-0.1-0.2-0.1-0.3-0.2-0.5c-0.3-0.6-0.7-0.9-1.4-0.9c-2.3-0.8-4.5-0.6-6.6,0.4L90.9,4C93.5,5.3,96.2,5.3,99,3.9z M83,13.1c0.5,0,1-0.1,1.5-0.2l0.2-1.4l-1.1-0.3l1.1-0.7c-1.2-0.4-2.3-0.5-3.6-0.5c-0.2,0-0.4,0.2-0.6,0.2l0.2,1.2l-1.7,0.4C80.1,12.7,81.5,13.1,83,13.1z M104.5,8.7l0.2-0.3c-0.3-0.5-0.7-0.7-1.2-0.7c-3.9-0.1-8-0.2-12-0.2c0.3,0.3,0.5,0.5,0.9,0.6C96.4,9.5,100.4,9.7,104.5,8.7z M88.4,10.3c-1.2,0.8-1.4,1.6-0.8,2.2l1.1-0.1c0.2-0.1,0.3-0.2,0.4-0.3c1.5-0.1,2.7-0.7,3.6-1.7L90.9,10C89.9,9.7,89,9.8,88.4,10.3z M97.6,6.7c0.5,0.4,1.2,0.6,2,0.5c0.6-0.2,1.2-0.2,1.9,0c2.7,0.4,5.1-0.3,7.4-1.8c0.5-0.3,1-0.6,1.6-0.8c4.5-1.3,9-2.7,13.6-3.9l-4-0.2c-2.1,0.2-4.2,0.2-6.3-0.2c-5.2-0.1-10.2,0.5-14.9,1.7l0.8,2.6L97.6,6.7z M300.5,89.4v-0.4l-2.3-3c-0.8,0.8-1.1,1.7-1.1,2.7c0,1.1,0.5,1.9,1.5,2.2L300.5,89.4z M211.9,51.9l1.5-0.6l0.2-1.5l-0.3-0.5h-1.6C211.4,50.1,211.6,51,211.9,51.9z M279.3,2.2l-2.9,0.8l2.9,0.2V2.2z M276.3,1.9c-1.4-0.5-2.7-0.2-3.5,1c-0.2,0.2-0.3,0.2-0.4,0.4C274,3.8,275.4,3.4,276.3,1.9z M255,126.1c0.3,1.4,1.1,1.9,2.7,1.5c1.3-1.5,2-3.3,2.4-5.1c0.6-3,1.1-5.9,1.5-8.9c0.1-0.8-0.3-1.4-1-1.6l-6.6,6.3c0.5,1.8,0.7,3.6,0.6,5.5C254.6,124.6,254.7,125.4,255,126.1z M190.5,37.4c1.4-0.2,2.5-0.6,3.5-1.2c0-0.2,0-0.3,0.1-0.5c0.2-1.1,0.4-2,0.5-2.6l-2.3-0.5l-0.5,0.1l-0.6,1.1l-1.9,0.5v0.5c0.1,0.5,0,0.9-0.2,1.3c-0.4,0.5-0.4,0.9-0.2,1.3C189.4,37.5,190,37.5,190.5,37.4z M197.9,34.6l-1.9,0.7l-0.8,1.9l0.5,0.8l-0.4,1.3l7.3-1.7l0.9-2c-2.7-1-4-2.7-4.2-5.2c0-0.4,0.1-0.7,0.2-1l-1.9-0.5l-0.6-0.8l-0.4-0.1c-1.3,0.6-1.9,1.7-1.9,3.2C195.4,32.7,196.4,33.8,197.9,34.6z M271.4,2.4h-1.8l-0.4-0.3c-1.1,0-2,0.1-2.9,0.5c0,0,0,0.1,0,0.2c1.7,0.2,3.5,0.4,5,0.4L271.4,2.4z M263.8,13.2l9.2,0.7l-0.2-0.4c-1.3-0.1-2.5-0.7-3.4-1.7c1.4-1.9,3.3-3,6-3.3c2.7-0.2,5.2-0.4,7.8-0.9c-0.1-0.2-0.2-0.4-0.5-0.4c-5,0-9.9,0.6-14.7,1.9c-1.4,0.4-2.6,1.2-3.4,2.5C264.2,12.1,264.1,12.6,263.8,13.2z M216.9,4.8l5.2,1.3l1.3-1l5.7,0.1l-1.3-0.8c1.5,0.2,2.7-0.1,3.5-0.9c-2.3-0.7-4.7-0.9-7.1-0.5l-0.8,1l-1.1-0.2l-0.8,0.9L220,4.6l-0.1-0.2c0.2-0.1,0.2-0.1,0.5-0.2l0.2-0.5l-1-0.5L218.1,4l-1.4-0.5l-0.4,0.1L216.1,4l0.2,0.5L216.9,4.8z M265.1,3.3c-0.2-0.1-0.2-0.2-0.3-0.2c-2.9-1-5.6-1.1-8.3-0.5C259.3,3.4,262.2,3.6,265.1,3.3z M113.5,74l-1.7-1.4c-0.9-0.5-1.9-0.9-2.8-1.4c-2.6-1.3-4.9-1.2-7,0.2L102,72c0.8,0.5,1.6,0.5,2.3,0.2c2.3-1,3.9-0.4,4.5,1.9C110.6,74.8,112.2,74.8,113.5,74z M17.3,28.7l3.6-1.9l-1.3,1.5l0.5,1l5.7-1.5l-0.1-1.1l0.8-0.5c4.9,1.8,10,2.7,15.2,2.4l1.7,3.1l-0.6,1.1l1,1l0.8-1.1l4.8,4.9l-0.8,0.9l4.2,2.2l1.5,10.1l1.1,0.2c3.3,4.5,6.7,9,10.4,13.5L65.3,65l7.7,7.5l-0.4-1.7c-3.6-3-6.5-6.5-8.9-10.5l2,0.8c1.3,2.8,3.2,5,5.8,6.6L71,68.1l5.1,4.2l0.6,1.9l5.5,2.4l0.5,1.1l6.3,2.1l0.5-0.9h1c2,1.6,4.2,3,6.4,4.2c0.7,0.3,1.2,0.9,1.7,1.7c1.1,2,2.7,3.5,4.8,4.3c1.7,0.8,3.6,0.8,5.5,0.1l1.1,0.3l0.1,4.5l-0.9,1.3l-0.8,0.3c-1.2,1.8-2,3.8-2.6,5.8l1.4,0.4l-0.1,0.7l-1.6,0.6l-0.4,0.5c2.3,3.5,4.5,7.1,6.7,10.8c1.5,2.7,3.6,4.5,6.4,5.5c-0.2,3.4-0.4,6.8-0.8,10.2l-0.8,0.5c0.4,3.3,0.2,6.4-0.8,9.6l-0.8,0.5v1.2l-0.8,0.2c-0.1,1.1,0.1,2.3,0.5,3.4c0.2,0.7,0.4,1.4,0.4,2.1l0.5,0.6l-0.2,0.8l-1,0.1l-0.5,0.3c0.8,1.4,0.8,2.7,0,3.9l-1,0.3v1.8l1.2,1.3l-0.4,1.1l0.2,0.6l1.1,0.2l0.2,0.2l0.2,2l2,1.5l1.6-0.6c2.3,1.8,4.8,2.2,7.6,1.1l-0.2-0.5l-3.7-1.7l0.3-1.7l-1.6-0.4l-0.3-0.5l0.3-0.6c1.9-0.8,3.2-2,3.8-3.9c-1.3,0.2-2.2-0.4-2.8-1.5c-0.1-0.1-0.1-0.2-0.2-0.4l2-0.6l0.4-1.8l1.9-1.2l-0.5-0.8c-1.2,0.2-2-0.4-2.6-1.5l4.4-0.2c0.3-0.7,0.3-1.4-0.1-2c1.9,0.3,3.6,0.2,5.4-0.1c1.4-0.3,2.1-1.2,2.3-2.7c-0.7-0.5-1-1.2-1.1-2l-0.8-0.9c1.1,0.8,2,0.8,3,0.2c1.9-1.2,3.8-2.6,5.5-4c1.3-1,2.1-2.3,2.7-3.6c0.2-0.8,0.2-1.5-0.1-2.4c2.3-1.1,4.6-2.2,7-3.3c0.6-0.4,1.1-0.7,1.5-1.2c1.2-1.4,2-3,2.2-4.6c0.2-0.7,0.2-1.4,0.3-2c0.4-2.6,1.6-4.7,3.6-6.3c0.4-0.4,0.7-0.9,0.8-1.4c0.2-2.7-1-4.7-3.8-5.9c-0.6-0.2-1.2-0.6-1.8-0.9l-1.5-0.5h-3.6l-0.5,0.7l-0.5-0.3l0.2-1.3c-0.8-1.2-1.8-1.7-3.3-1.7h-0.7l0.2,0.8l-0.5,0.5l-0.4-0.2l0.2-1.5l-0.2-0.3l-0.5-0.3c-1.1,0.3-2,0.8-2.7,1.8l-0.4-0.7l0.2-0.8c0.8-0.1,1.4-0.5,1.7-1.1c-0.8-3.4-3-5.6-6.1-6.7c-0.3-0.1-0.7-0.1-1.1,0c-1.4-0.2-2.4-0.8-3.3-2c-1.4-1.8-3-3-5.1-3.4c-0.8-0.2-1.6-0.1-2.4,0.2l-0.2-2l-0.5-0.3l-0.4,0.2l-1.1,1.3c-0.9-0.2-1.7-0.8-2.4-1.6c-1.4,0.6-2.2,1.6-2.6,3c-0.5-1.2-0.3-2.3,0.5-3.5c-1.3,0.4-2.6,0.8-3.8,1.3c-0.5,0.3-1,0.5-1.5,0.6c-0.1,1.1-0.7,2.2-1.6,3l0.2,1.1l-1.8,0.5l1-0.6l0.1-0.4c-2.4-0.2-4.8-0.8-7.2-1.6c-0.2-0.1-0.3-0.3-0.2-0.5c0.1-1.1,0.2-2.1,0.4-3.3c0.1-0.9,0.1-1.9-0.2-2.8c-1.7-0.8-3.5-1.3-5.3-1.4l2.3-6.1l-0.3-0.3c-2.8-0.7-4.7,0.1-5.7,2.3c-0.2,0.5-0.5,0.8-0.8,1.1c-2.1,1.1-4,0.8-5.8-1.2c-2.2-2.5-2.4-5.2-0.7-8c0.5-0.9,1.2-1.5,2.1-1.9c1.4-0.8,3.1-1.1,4.7-0.7l0.3,0.4l1.2-0.1l0.1-1.3h4.7l0.3,0.7l1.1,0.2l0.2-0.4l0.8-0.2c0.6,1.5,1.1,3,1.7,4.5c0.8,1.1,1.7,1.5,3,1.4c0.3-2.8-0.2-5.5-1.5-8l2.5-1.8l0.4-0.8c1.7-0.5,3.2-1.4,4.5-2.7c-1-1-1.3-2-0.8-3.2l1.1-0.2l0.3-1.4c2.1,0.2,4.1-0.4,5.9-1.4l-1.1-0.8l-0.1-0.8c0.8-0.5,1.3-1.1,1.4-2l3.4-1.1c-0.7,0.8-0.7,1.7-0.1,2.4c0.9,0.1,1.7-0.4,2.2-1.2c1.6,0.2,3-0.3,4.2-1.4l-0.3-0.9c-2,0.5-3.6-0.2-4.8-1.7c-0.3-0.5-0.5-1-0.7-1.6V40c-2.3-0.2-4.4,0.3-6.3,1.7c3.8-3,8.2-4.2,13-3.8c0.2,0.2,0.5,0.2,0.7,0.1c0.5-0.3,0.8-0.8,0.8-1.4c1.1-0.2,1.8-0.6,2.4-1.4c-1-2.3-2.7-3.6-5.4-4.1c-0.2,0-0.2-0.1-0.3-0.3c-0.5-1.9-1.2-3.3-2.6-4.3c-1.3,0.8-2.7,1.4-4.1,1.6c-1.7-1.5-3.3-3-4.6-4.7c-2.6-1.4-5.1-2.1-7.7-2.4l-0.5,0.5c0.8,1.4,0.9,2.9,0.3,4.4l0.8,1.4l-1.4,2l0.2,0.3c1.1,0.4,1.5,1.1,1.2,2.2l-2.9,1.9l0.2,3.6l-1.7,0.5l-2.5-4.2c-2.7-0.5-5.3-1.4-7.7-2.4c-0.5-0.2-1.1-0.3-1.7-0.2c-2.4-0.4-3.6-1.7-3.8-3.9c0-1.1,0.4-1.9,1.4-2.4c0.8-0.4,1.7-0.8,2.6-1.1c1.9-0.8,3.2-2.3,3.9-4.2c1.9-0.1,3.8-0.2,5.7-0.6l0.2-0.8l-1.1-0.9l0.7-0.8c-1.3-0.9-3-1.1-4.8-0.7l0.5,1.4l-1.7,0.8c-2.6-0.7-4.9-1.7-7.1-3.3c-1.4-0.9-2.8-0.9-4.2,0.2c1,0.5,1.9,1.1,2.8,1.9c0.1,0.2,0.2,0.3,0.3,0.5l-1.5,0.7v0.7c-1-0.8-2.1-1.1-3.5-1.1c-2,0.2-3.9,0.4-5.9,0.6l-0.5-0.6h-5.2L73,18h-7.3l-0.2-1.1c-5.3-1.4-10.7-1.7-16.1-1c-2.5-0.2-5.1-0.2-7.7,0.2c-1.5,0.3-3.1,0.5-4.7,0.4c-9.4-1.1-18.9-1.2-28.3-0.2c-1.5,0-3,0.2-4.3,0.5l5.9,4.2l-8.1,0.5l1.1,1.8L8.9,23v0.7l-5.5,2l1.1,2.3l2.8,0.3L7,29.8l1.7,0.4l0.5-0.8l0.6,0.7l2.7-0.3L0,35.3l0.3,1.2l17.4-6.9L17.3,28.7z M61.3,11.9c1.2-0.6,2.5-1.3,3.8-1.9L65,9.6c-2.6-0.8-5.1-1-7.6-0.2c-1.2,0.4-2.2,1.2-2.8,2.4l0.2,0.8C56.8,13.3,59,13,61.3,11.9z M75.5,5.3C75.6,5.3,75.6,5.3,75.5,5.3c-1.7-0.5-3.4-0.2-5.1,0.6l0.1,0.8C72.3,6.9,74,6.5,75.5,5.3z M72.5,11.9C70.8,12,69.3,12,67.6,12c-1.7,0-3.3,0.2-4.9,0.4l-0.8,1.3c2,2.7,4.9,3.7,8.7,3c1.4-0.2,2.8-0.2,4.2-0.1c2.2,0.1,4.3-0.5,6.2-1.4l0.2-0.5c-2.4-0.3-4.2-1.7-5.3-4.1C74.8,11.3,73.6,11.8,72.5,11.9z M85.5,15.8L83,15.3l-1.1,0.8l3.9,0.2L85.5,15.8z M65.5,8l0.9,1.4h0.6l1.3-0.8h0.5v1.1c2.6-0.2,5.2-0.5,7.6-0.8c0.4-0.2,0.6-0.3,1-0.5c-1.8-1.7-3.6-1.7-5.2-0.1c-1.4-0.7-2.7-1.4-4.2-2.1l-7.4,0.6l-0.3,0.5l0.8,0.9L65.5,8z M121.8,76.7h1.9v-0.8h-1.9V76.7z M108.5,76l2.6,0.6l0.1-0.5l-2.7-0.6V76z M117.1,77.1c0.9-0.8,2-1.2,3.4-1.1l-0.3-0.9c-1.6-1.1-3.3-1.5-5.2-1.4l-0.4,0.7l0.5,1.3c-1-0.1-1.7,0.1-2.3,0.5l0.5,0.3C114.7,76,115.9,76.3,117.1,77.1z M379.4,145.8c-1,0.3-2,0.6-2.9,0.9l-0.2,0.8l0.9,0.7l0.2,1.9l0.4,0.1c0.2-0.1,0.5-0.1,0.6-0.2c1.6-0.8,2.1-2.1,1.6-3.9L379.4,145.8z M363,58.5c-0.9-0.4-1.7-0.2-2.2,0.7l0.2,1.1l2-1.1V58.5z M384.2,104.8l0.4-1.1l-0.5-0.2l-1,0.9l-2.4,0.1l-0.2,0.7C381.8,106.1,383.1,106,384.2,104.8z M374.2,40.3l0.9,0.7l-3-8.2c0,3.4,0.2,6.8,0.8,10.2l1.9,0.6l-1.4-2.3v-1.1L374.2,40.3z M404.4,183.4c-1.7-1.6-3.9-2.3-6.5-2.1l-0.9-1.7c-2.5-0.1-5,0.1-7.4,0.5c-3.9,0-7.7-0.8-11.1-2.4c-0.4-0.1-0.7-0.2-1-0.3c-0.4-0.1-0.6-0.4-0.9-0.5c-4.4-0.4-8.8-0.2-13.1,0.4c-5.7,0.8-11.4,1-17.3,0.8c-3.6-0.5-7.3-0.6-11-0.5c-0.4,0.1-0.8,0.2-1.2,0.3c-6.2-0.5-12.4-0.5-18.5,0.2c-0.3-0.2-0.6-0.4-0.9-0.5c-0.4-0.3-1.9-0.5-3.6-0.5v-1.6c-1.2-0.1-2.2-0.1-2.5-0.1c-1-0.2-1.9-0.2-2.7-0.1c-0.8,0.1-1.7,0.2-2.3,0.5c-0.5,0.1-1,0.3-1.4,0.5c-2.9,0.7-5.7,1.7-8.3,3c-2,1.1-4.1,2.1-6.1,3.2c-2,1.2-4.2,1.8-6.4,2c-0.2-0.8,0-1.5,0.3-2.3c0.8-1.9,0.7-3.7-0.2-5.5c-7.8-0.8-15.5-0.3-23.1,1.5c-1.7,0.5-3.4,0.6-5.1,0.4c-11.5,0.8-23,1.1-34.5,1.1l-0.4-0.3c-1,0.7-2,1.1-3.2,1.6c-0.3,0.1-0.8,0.1-1.1,0.2c-0.7,0-1.4,0.1-2.2,0.1c-0.4,0-0.8,0-1.1-0.1c-0.7-0.1-1.4-0.2-2.1-0.4h-1.1c-0.3,0.1-0.7,0.2-1,0.4c-2.9,1.1-5.8,1.6-9,1.7c-3.3,0.1-6.5-0.2-9.8-0.6c-2.5-0.5-4.9-0.3-7.3,0.5c-1.3,0.4-2.3,1.1-3.2,2c-1.7,2-2.4,4.5-2,7.2c-1,0.1-1.9,0.2-2.9,0.2c-1.9,0.1-3.9,0.2-5.8,0.2h-11.7c-1,0-2,0-3-0.1c-7.9-0.2-15.6-0.7-23.3-1.5c-0.9,0-1.7-0.4-2.2-1.1c-0.8-0.8-0.9-1.7-0.6-2.7c1.5-4.6,3.6-8.9,6.4-13l0.5-0.2l0.5-0.8l-0.2-1.4c-0.4,0.1-0.8,0.1-1.1,0.2c-0.8,0.2-1.4,0.5-1.9,0.9c-1.4,1.1-2.9,1.9-4.5,2.4c-2,0.7-3.6,2-4.5,4c-1.1,0.2-2.3,0.7-3.3,1.3c-1.8,1.1-3.5,2.6-5,4.2c-8.9-2.2-18-3-27.1-2.5c-0.3,0.2-0.7,0.3-0.9,0.5c-1.9,1.2-3.8,2.3-5.8,3.2c-0.2,0.1-0.4,0.2-0.5,0.2c-1.4,0-2.7,0.1-4.2,0.2h-3.6c-2.4,0.1-4.9,0.2-7.3,0.3c-1.2,0-2.4,0.1-3.6,0.2c-1.2,0.1-2.4,0.1-3.6,0.2c-13.3,0.5-26.4,1.4-39.6,3c-1.7,0.2-3.3,0.3-5,0.4c-2.4,0.1-4.1,0.9-5.4,2.6h392.3c-0.6-0.3-1.1-0.6-1.7-0.9c-0.8-0.3-1.1-0.8-1.1-1.7c0-0.4,0.2-0.7,0.4-0.8c2.6-1.3,5.2-2.4,7.7-3.6c0.8-0.4,1.3-0.9,1.4-1.7C404.5,183.7,404.5,183.5,404.4,183.4z M379.5,107.6c-0.8-2.5-2.5-4.4-4.9-5.5c-1.8-1-3.8-1.7-5.9-2.2c-0.4-0.1-0.8-0.1-1.1,0.2c-1.4,0.8-2.9,1.2-4.2,1.1v-1.6l-0.8-0.8l-4.5,0.2c0.7,1.5,1.9,2.3,3.6,2l-0.4,0.6l-0.8,0.1l0.9,1.7l0.3-0.7l0.5-0.3l0.8,0.4l0.3,0.6c1.3-0.1,2.6,0.2,3.7,0.8l1,2.7l-1.4,0.8l0.6,0.8l0.5,0.2c0.5-0.6,1.1-0.6,1.7-0.3c0.2,0.2,0.4,0.4,0.6,0.7l1.2,0.4l0.9-0.5l0.7,0.5l-0.2,0.9l1.5,1l-0.2-1.8l0.6-0.8l-0.4-1l2.1-0.4c0.1,0.2,0.2,0.5,0.3,0.8c1.2,2.1,3,2.7,5.3,1.8l-0.2-1.6C380.8,109,380,108.8,379.5,107.6z M364.1,56.2c-2.4-0.5-4.2,0.2-5.5,2.3c-0.9,1.7-0.7,3,0.9,3.8c0.2-0.3,0.3-0.6,0.5-0.9c0.5-0.9,0.6-1.8,0.2-2.8c0.8-0.8,1.9-1.1,3-0.8l1.5,2.4c1.1-1.1,2.2-1.9,3.7-2.4c3.5-1.1,4.8-3.4,3.6-7.2L372,51l-0.8-1.1l-0.8-0.1l-1.7,4C367,54.1,365.4,54.9,364.1,56.2z M410.6,138c-0.8-0.9-1.3-1.3-1.7-1.1c0,0.1,0.1,0.2,0.1,0.2c1.1,1.3,1.7,2.8,1.8,4.5c-0.6,2-0.5,4,0.4,6h0.6c1.5-1.5,2.6-3.2,3.1-5.1l-2.5-1C412.1,140.3,411.4,139.1,410.6,138z M427.5,19.1c-2-0.3-4-0.8-5.8-1.3c-6.2-2-12.4-2.5-18.7-1.4l-0.3,0.5c-2.3-0.6-4.4-0.6-6.7-0.1c-0.8-0.8-1.7-1.4-2.9-1.6c-0.8,0.1-1.6,0-2.3-0.2c-6.8-1.5-13.8-2.3-20.8-2.1l-0.8,1.1l-11.6,0.4l-0.4,0.6h-0.7v-0.5c0-1.8-1-2.7-3-2.7c-1.1,0.1-2.3,0.1-3.4,0.1c-2.3,0-4.5-0.2-6.7-0.5c-5.2-0.2-10.4,0.3-15.4,1.9c0.1-0.2,0.2-0.5,0.5-0.7c0.2-0.3,0.4-0.5,0.5-0.7c0.5-0.4,0.9-0.5,1.4-0.5c2.3-0.5,4.5-1.1,6.8-1.9l0.2-1.2l-0.9-0.8c-2.2-0.2-4.4-0.2-6.6-0.4c-3.4,0.4-6.7,0.2-10.1-0.5l0.6-1.1c1.4,0.3,2.5,0.1,3.4-0.6l0.2-1c-2.3-0.8-4.8-1-7.3-0.6l-0.6,1c-0.7-0.7-3.1-1.3-5.4-1.8v1.7c-0.5,0.1-0.8,0.2-0.8,0.3c-1.2,2.2-2,3.3-2.3,3.3c-0.5,0.1-0.8,0.2-1.3,0.2c-1.4,0.2-2.9,0.4-4.3,0.7c-0.1,0-0.2,0-0.2,0V9c-0.5,0.1-0.9,0.2-1.4,0.2l0.4,1.1c-0.5,0.2-1.1,0.4-1.7,0.5c-0.6,0.2-1.2,0.2-1.8,0.2l-0.5-0.4c-2.4,1.7-5.1,2.3-8,1.7l-0.3,0.6l2,3c-0.3-0.1-0.6-0.2-0.9-0.3c-2.3-0.8-3.8-2.4-4.5-4.8c-1-0.1-2,0.2-2.7,0.6c-0.8,0.5-1.3,1.2-1.4,2c0.3,0.4,0.5,0.7,0.8,0.9c0.9,0.9,1.9,1.5,3,1.9c-3.9-0.6-8-1.1-12.1-1.4l0.2,1.3c-2.8,0.5-5.5,0.6-8.4,0.5c-0.7,0-1.3,0.1-2,0.3c-1.8,0.8-3.7,1.2-5.7,1.2c-0.5,0-0.8-0.2-1.2-0.4c-2-1.6-3.6-1.1-4.6,1.4c-2,0.7-3.9,1.6-5.8,2.8l-2.6-0.8l-1.1-2.3c0.4,0.2,0.7,0.3,1,0.5c2.3,0.8,4.5,0.7,6.5-0.6c-0.3-0.4-0.6-0.6-1-0.8c-4.4-1.4-8.8-2.6-13.3-3.4l-0.2-0.2l-3.2,0.5l-0.4-0.8l-3.9,0.5l-0.2,0.4l-1.6,0.3l-0.6-0.4l-2.6,0.8l-0.3,0.8c-0.8-0.2-1.6-0.1-2.2,0.2c-0.4,0.2-0.9,0.4-1.3,0.5l1,0.7l-2.9,1.8c-2.5,2.1-5.3,3.8-8.4,4.9c-0.3,1.4,0.1,2.6,0.9,3.6c0.9,1.3,2,1.4,3.1,0.6c0.5-0.3,1-0.5,1.7-0.5c0.2-0.2,0.5-0.2,0.5,0c1.4,1.5,3,2.9,4.5,4.2l3-1.1l0.4-2.8l2-0.9c0.2-0.8-0.1-1.5-0.7-2c-0.5-0.2-0.6-0.5-0.5-1.1c0.2-1.4,1.1-2.3,2.6-2.4c0.6-0.8,1.4-1.4,2.1-1.9c1.1-0.5,2.2-0.5,3.1,0.2c-0.1,0.2-0.2,0.4-0.3,0.5c-0.4,0.8-1.1,1.4-1.8,1.7c-0.5,0.1-0.8,0.2-1.2,0.4l-0.3,0.8c0.1,0.4,0.2,0.7,0.3,0.9c1.1,1.7,2.7,2.3,4.5,1.6c2-0.7,3.5-0.5,4.4,0.7c-2.5,0.5-5,0.9-7.7,1.3c0.1,0.5,0.2,1.2,0.2,1.7c0-0.1,0-0.1-0.2-0.1c-0.5,0-0.9-0.1-1.4-0.1c-0.3,0-0.5,0.1-0.7,0.2c-0.2,0.2-0.5,0.2-0.6,0.3l-0.4,2.2c-0.8,0.2-1.7,0.5-2.7,0.6c-2.9,0.8-5.7,0.8-8.6,0.2l1.9-0.5v-1.2h-1.3c-0.1,0-0.2,0-0.2,0.1c0,0.1,0,0.2-0.1,0.2h-0.3c0,0-0.1,0-0.2,0c-0.1-0.7-0.1-1.2-0.2-1.8l-2.5,1l0.8,2.3l-0.4,0.8l-2.7-0.2c-0.8,0.9-1.5,1.7-2.4,2.5c-0.8,0.7-1.7,0.9-2.7,0.8l-0.2,1.3l-2.1,0.8l-1.5-0.5l-0.3,0.2l-0.5,1.2c-0.7-0.2-1.3-0.3-1.7-0.3c-0.3,0-0.5-0.1-0.7-0.1c-0.3,0-0.5,0-0.8,0.1l-0.2,0.5c0.1,0.2,0.2,0.2,0.3,0.3c0.2,0.2,0.5,0.3,0.7,0.4c0.2,0.1,0.2,0.1,0.4,0.2c0.3,0.1,0.5,0.1,0.8,0.1l1.3,1.4l1.1,0.3l-0.7,2.7l-0.6,0.3c-3.3-1.1-6.3-0.7-8.9,1.1c0.4,1.1,0.4,2.2,0,3.3c-0.2,0.5-0.7,1.1-1.1,1.6l0.6,0.2l0.2,1.7l0.4,0.3c0.8,0.1,1.5,0.2,2.3,0.3c0.8,0.2,1.4,0.5,2.1,0.7l1.5-0.8c0.6,0.1,1.3,0.1,2,0c1.1-0.3,2-0.8,3-1.4l-0.2-1.9c0.3-0.2,0.6-0.5,1-0.8c0.9-0.8,2-1.3,3.2-1.7l0.2-1.8c0.4-0.4,0.8-0.5,1.4-0.5c2.1-0.3,4.4-0.5,6.5-0.3c0.4,0.5,0.8,0.8,1.3,1.1c2.1,1.1,4.2,2.5,6.1,4v1.9c0.7,0.2,1.1-0.2,1.1-0.8c0.1-0.7,0.2-1.2,0.2-1.8c0.7,0.3,1.3,0.5,2,0.6v-0.2c-3.1-1.7-5.8-3.9-8.2-6.7c0.3-0.1,0.5-0.2,0.7,0c2.8,1.4,5.5,3,8,4.7c-0.1,0.7,0.1,1.4,0.7,2c0.1,0.1,0.2,0.1,0.4,0.1c0,0.1,0.2,0.2,0.2,0.2l1.5,1.4l0.2,1.1l2,0.8l0.8-1.4l1.4-0.1l-2.3-2.7c0.6-0.5,1.3-0.6,2.1-0.3c0.5,0.2,0.9,0.4,1.3,0.6l-0.2,1.7l1.1,0.6l0.8,1.3c0.5,0.1,1,0.2,1.5,0.2c2.9,0.3,5.9,0.4,8.9,0c-0.2,0.6-0.2,1.2-0.3,1.7c-0.4,1.7-1.1,3.2-2.3,4.5c-4.7,0.7-9.3,0.2-13.7-1.4c-0.5-0.2-0.9-0.2-1.4-0.1c-1.3,0.1-2,0.9-2.2,2.3c-1.9-0.1-3.6-0.7-5.2-1.5c-0.5-0.3-1-0.5-1.5-0.7c-3,0-4.2-1.5-3.6-4.3l-0.3-0.6c-1.1-0.5-2.3-0.6-3.6-0.5c-0.9,0.1-1.7,0.1-2.7-0.1c-2.6-0.3-4.8,0.4-6.5,2c-2.2,0.2-4.5,0.2-6.7,0l-0.2,0.8l-4.4,3.2c-0.2,1-0.4,2-0.9,2.8c-0.8,1.5-2,2.3-3.8,2.5l-0.4,1.1l-0.6,0.6v1c-1.1,1.1-2.2,2.2-3.2,3.4c-0.1,0.2-0.2,0.2-0.2,0.5c1,2.9,0.8,5.8-0.5,8.6c0,0.2,0.1,0.3,0.2,0.5c0.1,0.7,0.2,1.4,0.4,2c0.1,0.3,0.2,0.5,0.4,0.7l0.6,0.1c0.6,0.7,1.1,1.4,1.5,2.2c1.2,2.7,3.3,4.5,6.1,5.2c0.4,0.9,1,1.5,1.9,1.6c1.8-0.2,3.6-0.5,5.4-0.8c3.3-0.8,6.7-1.1,10.2-1.1c0.3,1.1,1.1,1.8,2.2,2c0.7,0.2,1.4,0.1,2-0.2c0.8,0.5,1.4,1.3,1.6,2.2c0.4,0.9,0.3,1.9-0.1,2.8l-0.5,0.8c0.2,0.8,0.5,1.7,1.2,2.3c2.4,2.5,3.7,5.2,3.7,8.4l0.6,1c-0.1,0.5-0.2,0.9-0.4,1.2c-1,1.9-1.6,3.7-2.1,5.5c-0.1,0.5,0,0.8,0.2,1.1c2,3.1,3.1,6.5,3.5,10.3l0.4,0.2l0.4,2.2c1.6,1.5,2.7,3.3,3.3,5.5l-0.4,0.9c0.1,0.2,0.2,0.3,0.3,0.5c0.7,1.1,1.5,1.7,2.7,1.9c1-0.1,1.7-0.6,2.1-1.4c1,0.1,2,0.1,3-0.2c5.5-1.4,8.9-4.8,10.2-10c0.2-0.2,0.4-0.2,0.5-0.2c0.5-0.3,1-0.6,1.5-1.1c0.4-0.4,0.6-1,0.7-1.6c0.1-1-0.2-1.9-0.6-2.7c1.5-2.1,3.5-3.7,5.8-4.8l0.3-0.5c1.6-1.3,1.9-3,1.1-5.2c-0.6-1.4-0.9-3-1.1-4.5c0-0.5,0-1.1,0.2-1.6c1.2-4.5,3.8-7.8,7.8-10.1c0.5-0.2,0.9-0.6,1.3-1.1c2.4-2.8,4.3-6.1,5.8-9.5l-0.4-0.8c-1.3,0.2-2.6,0.5-3.8,0.8c-1.4,0.1-2.5-0.4-3.6-0.8c-2.7-1-5.2-1.7-7-4.3c-0.2-0.2-0.2-0.4-0.3-0.6c-0.2-0.6-0.5-1.1-1-1.5c-1.7-1.6-2.5-3.5-2.5-5.8c-0.2-0.1-0.4-0.2-0.5-0.3l-1.5-1.5l-0.2-1.4c-0.3-0.3-0.5-0.6-0.6-0.9c-0.7-1.4-1.7-2.6-2.8-3.6l1.5-0.6c0.2,0.2,0.4,0.4,0.6,0.5c1.3,1.2,2.2,2.7,2.8,4.2c0.5,0,1,0.2,1.4,0.7c0.4,0.6,0.8,1.2,0.8,2c0.2,1.4,1.1,2.3,2.4,2.7c1.1,2.3,2,4.5,2.9,6.8c0.4,1,1.1,1.6,2,1.7c3.1-0.4,6-1.4,8.6-3.2c0.5-0.3,0.8-0.5,1.4-0.7c4.2-1.3,6.6-4,7.3-8c-0.2-0.2-0.4-0.3-0.6-0.4c-1.6-0.7-3-1.7-4-3.2c-0.4,0.3-0.8,0.6-1.1,0.9c-0.8,0.8-1.6,1-2.5,0.8c-1.3-0.3-2.1-1.1-2.3-2.5l-0.8,1.5c-0.1-0.5-0.2-0.8-0.4-1.2c-0.4-0.8-0.8-1.6-1.4-2.1c-0.7-0.6-0.9-1.4-0.6-2.4l0.4-0.2c0.1,0.1,0.2,0.1,0.3,0.2c2.6,3,5.9,4.5,9.8,4.4l0.2,0.5c2.5,1,5.1,1.1,7.7,0.5c2.7-0.5,5,0.5,6.7,2.9l1.5,0.3l-1.4,0.7c0.1,0.1,0.2,0.2,0.2,0.4c0.5,0.8,1.3,1.3,2.3,1.2c0.3-0.1,0.6-0.2,1-0.3l0.2-1.4h0.7c0.2,2.9,0.8,5.8,1.7,8.6c0.4,0.2,0.7,0.6,0.9,1.1c0.2,0.7,0.5,1.3,0.7,1.9c0.2,0.1,0.2,0.2,0.3,0.3c0.9,1.1,1.6,2.3,2.1,3.6c0.5,1.2,1.3,1.5,2.5,0.9c0.5-1,0.9-1.8,1.4-2.8c0.2-0.3,0.5-0.6,0.8-0.9c-0.1-0.9-0.2-1.7-0.3-2.6c-0.1-0.8,0.2-1.5,0.7-2.1c0.6-0.6,1.1-1.4,1.7-2c0.5-0.4,0.8-0.8,1.3-1.2v0.4c0.2-0.2,0.4-0.5,0.5-0.7c0.3-0.4,0.8-0.8,1.2-1.1l1.4-1.1c1.1-0.8,2.3-1.3,3.6-1.7c0.3-0.1,0.8-0.2,1.3-0.3c0.1,0,0.5-0.1,1-0.1v2.6c0.9,0.2,1.7,0.4,1.8,0.6c1.3,1.7,2,3.6,2.1,5.6l3.6-0.1c0.7,1.1,1.1,2.4,1.1,3.9l1.1,0.8v4.7c0.8,0.6,1.6,1.4,2.2,2.3c0.2,0.2,0.2,0.5,0.4,0.8c0.2,0.5,0.4,1,0.5,1.4c0.2,0.5,0.3,0.9,0.6,1.3c1,1.1,2.1,2.1,3.3,3.1c0-0.2,0.1-0.4,0.2-0.6c0.2-0.9,0.1-1.7-0.4-2.7c-0.4-0.8-0.9-1.5-1.6-2c-2.9-2.5-4.1-5.6-3.6-9.2c0.3,0,0.5,0,0.8,0.1c0.2,0,0.4,0,0.6,0.1c0.2,0.1,0.5,0.2,0.6,0.3c0.4,0.2,0.7,0.5,0.8,0.8c1,2.2,2.5,3.7,4.5,4.5l0.8-0.8l0.2-1.5l0.6-0.5c1.1,0.1,2.1-0.2,3-1c-0.5-3.1-1.6-5.9-3.5-8.4c-1.4-2-1-3.4,1.4-4.2l0.5,0.5l-0.4,2.1l1,1.1l1.1-0.3c0.2-2.3,1.4-3.5,3.6-3.7c2.7-0.4,4.9-1.5,6.7-3.6c1.4-1.7,2.5-3.6,3.5-5.5c0.8-1.5,0.3-2.4-1.4-3l-0.8-3.7c1-0.6,1.8-1.4,2.3-2.4l-0.4-0.2c-1.4,0.5-2.7,0.2-3.8-0.6v-0.4l3.6-2.7l-0.2,2.2l0.3,0.4h0.4c1.2-1,2.5-1.3,3.8-0.8l-0.5,2l1.4,0.5l0.5,3.6c0.7,0.5,1.3,0.5,2,0.2c0.3-0.2,0.5-0.4,0.7-0.7c0.8-0.8,1.1-1.9,0.7-3.1c-0.1-0.5-0.2-1-0.2-1.4c0-1.9,0.8-3.4,2.3-4.7c0.5,0.1,0.9,0.1,1.3,0.2c0.8,0.1,1.4-0.1,2.2-0.4c3.3-1.8,5.8-4.2,7.8-7.1c0.5-0.8,0.8-1.7,0.6-2.7c-0.4-3.2-2.2-4.5-5.3-4c1.6-2,3.5-3.5,5.8-4.3c3-1.1,6.1-1.4,9.2-1.1c1.7,0,3.2-0.4,4.5-1.1c2.4-1.2,5.1-2.1,7.8-2.9c0.2,0.5,0.3,0.9,0.4,1.4c0.2,0.9-0.1,1.6-0.8,2c-1.1,0.6-2,1.4-3,2.3c-0.9,0.8-1.3,1.9-1.1,3c0.5,2.3,0.2,4.4-1.1,6.4c1.9-0.4,3.3-1.4,4.3-3.1c0.7-1.2,1.5-2.1,2.6-2.9c1.2-0.8,2.1-1.9,2.9-3.3c0.2-0.5,0.2-0.8,0.2-1.3c-0.5-2.1,0-3.6,1.6-4.5l0.7,2.2c1,0.1,2,0.2,2.9,0.2c0.9,0,1.7-0.2,2.7-0.4c3.6-1.1,7.4-1.9,11.1-2.3l0.5-0.5l0.2-0.5l-1.3-1.4c0.5-0.5,1-0.8,1.4-1.1c0.4-0.2,0.8-0.5,1.2-0.6c2.3,0.3,4.5,1.1,6.4,2.5c0.2-0.1,0.4-0.2,0.6-0.2c1.4-0.6,2.3-1.7,2.7-3.3L427.5,19.1z M341.6,109.1l0.4,0.7c0.2,0.1,0.5,0.1,0.7,0.1c1.1,0.2,1.9,0,2.4-0.9h-2.6C342.2,109,341.9,109.1,341.6,109.1z M407.6,146.6c-1.7,2-3.6,3.9-5.8,5.5c-1.1,0.9-1.1,1.7,0,2.6c1.3,1,2.3,0.6,3.3-1.1c0.6-1.4,1.7-2.2,3.4-2.4l-0.1-1.5c0.1,0,0.2-0.2,0.2-0.2c0.7-0.2,1.1-0.6,1.2-1.4C409.5,147,408.7,146.4,407.6,146.6z M329.9,104c-0.3-0.5-0.5-1.1-0.9-1.7c-2.8-4.6-6.7-8.2-11.6-10.6l-0.5,0.3c0.4,0.8,0.8,1.4,1.4,2.2c1.1,1.7,2.3,3.3,3.3,4.9c4.3,6.8,10.5,10,18.5,9.5c-1.7-1.1-3.6-1.7-5.5-1.7C332.4,107,330.8,106,329.9,104z M370.2,47.8c-0.4,0.4-0.6,0.8-0.6,1.2l4.5,0.2c0.1-0.2,0.3-0.4,0.5-0.5c1.1-0.6,2-1.4,3-2.3l-0.5-0.6c-1.7,0.2-3.2-0.5-4.4-1.6l-0.4,0.2l-0.7,2.5C371.1,47.1,370.7,47.4,370.2,47.8z M355.3,100.2l0.5-1.7l1.1-0.5l0.2-0.5l-0.7-0.5l-0.7-1.6c-1.1,0.9-1.4,2.1-1,3.8C354.9,99.5,355.1,99.9,355.3,100.2z M345.7,82.7c0,0.8,0.4,1.4,1.1,1.7c0.8-1.4,2-1.8,3.7-1.2l0.5-0.7l-0.1-0.5l-2.7-0.4c-0.6-0.6-0.7-1.4-0.4-2.3c0.5-1.2,0.2-2-1-2.7c-0.2,0-0.4-0.1-0.5-0.2C345.7,78.5,345.5,80.5,345.7,82.7z M349.8,110.5l-0.1,0.7l0.5,0.4l4.5-2.3C353.1,109.1,351.4,109.5,349.8,110.5z M344.6,92.2c-0.8-0.5-1.6-0.8-2.3-1.1c-0.2-0.1-0.5-0.1-0.7-0.1l-1.7,2.3c-0.4,0.2-0.7,0.5-0.9,0.8c-0.5,0.5-0.9,0.8-1.5,1.1l-1.7,0.2l-0.8,1.1l-1.4-0.2c-1,0.8-1.1,1.9-0.4,3c0.5,0.8,0.8,1.7,0.9,2.7c2.3,0.9,4.8,1.4,7.4,1.1c0.5-2.4,1.7-4.5,3.3-6.2l-1.4-2.1c0.2-0.3,0.4-0.5,0.6-0.8C344.5,93.6,344.7,93,344.6,92.2z M348.4,68.5c-0.2-0.1-0.2-0.2-0.2-0.2c-1.4,1.2-1.8,2.4-1,3.9l0.6-1.1l-0.4-1.1l1.2-0.8L348.4,68.5z M346,106.1l0.4,0.1l0.6-0.3c0.1-0.1,0.1-0.2,0-0.4c-0.2-0.9-0.2-1.8,0.2-2.7c0.5,1.2,1.3,1.7,2.5,1.4l0.3-0.5l-1.2-2.3l1.7-1.7l-2.9,0.6c-0.1-0.2-0.2-0.2-0.2-0.3c-0.4-0.5-0.3-1.1,0.1-1.5c0.2-0.1,0.5-0.1,0.7-0.1c1.9,0.5,3.4,0,4.7-1.4l-0.4-0.2c-1.3,0.2-2.6,0.4-3.9,0.4c-1,0-1.7,0.4-2,1.2c-0.2,0.8-0.5,1.5-0.8,2.3c-0.2,0.5-0.2,0.9-0.2,1.4C345.6,103.6,345.7,104.8,346,106.1z M350.7,83.8c0.2,0.8,0.3,1.7,0.5,2.5l0.6,0.2l0.5-2.1l-0.5-0.6H350.7z M339.9,124.7c-1.4,1.7-1.7,3.7-0.8,5.8c0.5,1.1,1,2,1.4,3c0.9,1.9,1.3,3.8,0.9,5.8c0,0.3,0.1,0.5,0.3,0.8c0.6,0.8,1.4,0.9,2.3,0.8c4.9-1.4,9.8-3,14.6-4.6c1.3-0.5,2.6-0.4,3.7,0.5c0.6,0.5,1.1,1,1.6,1.4c0.6,0.6,1.3,0.8,2,0.8c0.5,0,1.1-0.1,1.6-0.1L366,141l0.5,0.3c1.1-0.3,2-0.1,2.7,0.7c0.5,0.5,0.6,1.1,0.3,1.6c3.6,1.4,7.1,1.4,10.6-0.2c0.9-0.5,1.6-1.1,1.7-2.2c0.2-1.1,0.8-2.1,1.8-2.9c0.9-0.6,1.7-1.4,2-2.5c1.7-3.9,1.1-7.4-1.8-10.6c-1.8-1.9-3.6-3.9-5.4-5.8c-0.9-0.9-1.7-1.9-2.3-3c-0.8-2.1-2.2-3.6-4.2-4.5c-0.3-0.1-0.6-0.2-0.8-0.2l-0.4,0.2c0.5,2,0.5,4,0.2,6c0,0.2-0.1,0.4-0.2,0.5c-3.1,0.2-5.2-1.1-5.9-3.9c-0.2-0.5-0.2-0.9,0-1.4l-6-1.7l-1.1,1.6l-1.4,0.5l-0.1,2.6h-0.8l-0.8-0.5l-0.9-0.9l-1.2,0.2c-0.5,0.8-1.1,1.5-2,2l-0.1,1l-1.1,0.1c-1.5,3.3-4.2,5.2-7.8,6C341,123.7,340.4,124.1,339.9,124.7z M350.3,108.8c-1.6,0-3,0.2-4.3,0.8l0.3,0.5c1.6,0.1,3-0.2,4.2-1L350.3,108.8z M352.8,86.9l-0.5,1.3c-0.2,0-0.5,0-0.7-0.1c-1.9-0.5-3,0.1-3,1.8l2.2-0.3c0.4,1.1,1.1,1.9,2.1,2.3l0.5-0.4l-0.4-1.2l0.1-0.1c0.8,0.2,1.2,0.2,1.4-0.3l-1.2-3.1L352.8,86.9z M349,85.7c0.2,0,0.4,0,0.5-0.2c0.2-0.2,0.2-0.3,0.2-0.5c0-0.2,0-0.4-0.2-0.5c-0.2-0.2-0.3-0.3-0.5-0.3c-0.2,0-0.4,0.1-0.5,0.3c-0.2,0.1-0.3,0.3-0.3,0.5c0,0.2,0.1,0.4,0.3,0.5C348.6,85.7,348.8,85.7,349,85.7z"/>
  <style type="text/css" >
    <![CDATA[
      .fr  {fill:#96B482;}
      .bck {fill:#000000; opacity:0.1;}
    ]]>
  </style>
</defs>

<g class="fr">
 <use xlink:href="#continents" x="0" y="0"/>
 <use xlink:href="#continents" x="430" y="0"/>
</g>
<g class="bck">
 <use xlink:href="#continents" x="-430" y="210" transform="scale(-1,1)"/>
 <use xlink:href="#continents" x="-860" y="210" transform="scale(-1,1)"/>
</g>

</svg>
